M48
; DRILL file {KiCad 5.1.12-84ad8e8a86~92~ubuntu20.04.1} date 2022-05-19T18:35:21 CEST
; FORMAT={-:-/ absolute / inch / decimal}
; #@! TF.CreationDate,2022-05-19T18:35:21+02:00
; #@! TF.GenerationSoftware,Kicad,Pcbnew,5.1.12-84ad8e8a86~92~ubuntu20.04.1
; #@! TF.FileFunction,Plated,1,2,PTH
FMAT,2
INCH
T1C0.0157
T2C0.0300
T3C0.0354
T4C0.0394
T5C0.0709
T6C0.1220
%
G90
G05
T1
X2.1375Y-1.1575
X2.31Y-1.3625
X2.43Y-1.33
X3.068Y-4.133
X3.075Y-4.0675
X3.078Y-3.93
X3.66Y-4.201
X3.8025Y-3.589
X3.814Y-4.81
X3.843Y-5.0675
X3.898Y-4.909
X3.898Y-5.021
X3.9426Y-3.652
X3.955Y-3.775
X3.971Y-5.093
X4.023Y-4.96
X4.025Y-3.9075
X4.0525Y-5.491
X4.0885Y-5.5495
X4.128Y-5.516
X4.3085Y-5.3645
X4.332Y-5.665
X4.4175Y-5.5145
X4.4321Y-4.0021
X4.435Y-4.1812
X4.4357Y-4.0907
X4.492Y-4.908
X4.493Y-4.815
X4.6548Y-4.1615
X4.6627Y-4.2856
X4.745Y-4.3835
X4.7512Y-3.9706
X4.7709Y-4.0749
X4.8556Y-4.4332
X4.893Y-4.908
X4.895Y-4.815
X4.8955Y-5.0
X4.9009Y-4.0769
X4.9009Y-4.256
X4.9575Y-5.3875
X5.0032Y-4.1438
X5.0131Y-4.1773
X5.0367Y-3.9706
X5.097Y-5.016
X5.151Y-4.998
X5.212Y-5.187
X5.3375Y-3.7565
T2
X3.4205Y-5.225
X3.4205Y-5.825
X3.5205Y-5.225
X3.5205Y-5.825
X3.6205Y-5.225
X3.6205Y-5.825
X3.7205Y-5.225
X3.7205Y-5.825
X3.8205Y-5.225
X3.8205Y-5.825
X3.9205Y-5.225
X3.9205Y-5.825
X4.0205Y-5.225
X4.0205Y-5.825
X4.1205Y-5.225
X4.1205Y-5.825
X4.2205Y-5.225
X4.2205Y-5.825
X4.3205Y-5.225
X4.3205Y-5.825
X4.4205Y-5.225
X4.4205Y-5.825
X4.5205Y-5.225
X4.5205Y-5.825
X4.6205Y-5.225
X4.6205Y-5.825
X4.7205Y-5.225
X4.7205Y-5.825
X4.8205Y-5.225
X4.8205Y-5.825
T3
X2.2064Y-1.5807
X2.2064Y-1.6791
X2.2084Y-3.4988
X2.2084Y-3.5972
X2.3049Y-1.5807
X2.3049Y-1.6791
X2.3069Y-3.4988
X2.3069Y-3.5972
X2.4033Y-1.5807
X2.4033Y-1.6791
X2.4053Y-3.4988
X2.4053Y-3.5972
X2.5017Y-1.5807
X2.5017Y-1.6791
X2.5037Y-3.4988
X2.5037Y-3.5972
X2.6001Y-1.5807
X2.6001Y-1.6791
X2.6021Y-3.4988
X2.6021Y-3.5972
X2.6986Y-1.5807
X2.6986Y-1.6791
X2.7006Y-3.4988
X2.7006Y-3.5972
X5.552Y-2.59
X5.552Y-2.69
X5.552Y-2.79
X5.552Y-2.89
X5.552Y-2.99
X5.552Y-3.09
X5.552Y-3.19
X5.552Y-3.29
X5.552Y-3.39
X5.552Y-3.49
X5.552Y-3.59
X5.552Y-3.69
X5.552Y-3.79
X5.552Y-3.89
X5.552Y-3.99
X5.552Y-4.09
X5.552Y-4.19
X5.552Y-4.29
X5.552Y-4.39
X5.552Y-4.49
X5.552Y-4.59
X5.552Y-4.69
X5.552Y-4.79
X5.552Y-4.89
X5.552Y-4.99
X5.552Y-5.09
X5.552Y-5.19
X5.552Y-5.29
X5.552Y-5.39
X5.552Y-5.49
X5.552Y-5.59
X5.552Y-5.69
X5.652Y-2.59
X5.652Y-2.69
X5.652Y-2.79
X5.652Y-2.89
X5.652Y-2.99
X5.652Y-3.09
X5.652Y-3.19
X5.652Y-3.29
X5.652Y-3.39
X5.652Y-3.49
X5.652Y-3.59
X5.652Y-3.69
X5.652Y-3.79
X5.652Y-3.89
X5.652Y-3.99
X5.652Y-4.09
X5.652Y-4.19
X5.652Y-4.29
X5.652Y-4.39
X5.652Y-4.49
X5.652Y-4.59
X5.652Y-4.69
X5.652Y-4.79
X5.652Y-4.89
X5.652Y-4.99
X5.652Y-5.09
X5.652Y-5.19
X5.652Y-5.29
X5.652Y-5.39
X5.652Y-5.49
X5.652Y-5.59
X5.652Y-5.69
T4
X2.135Y-4.475
X2.135Y-4.625
X2.135Y-4.775
X2.135Y-4.925
X2.135Y-5.075
X2.135Y-5.225
X2.135Y-5.375
X2.135Y-5.525
X2.135Y-5.675
X2.135Y-5.825
X2.3125Y-2.4011
X2.3125Y-2.4913
X2.3125Y-2.5815
X2.3125Y-2.6717
X2.3125Y-2.7619
X2.335Y-4.4
X2.335Y-4.55
X2.335Y-4.7
X2.335Y-4.85
X2.335Y-5.0
X2.335Y-5.15
X2.335Y-5.3
X2.335Y-5.45
X2.335Y-5.6
X2.335Y-5.75
X2.335Y-5.9
X2.4125Y-2.4465
X2.4125Y-2.5367
X2.4125Y-2.6269
X2.4125Y-2.7171
X2.4125Y-2.8073
X2.5125Y-2.4011
X2.5125Y-2.4913
X2.5125Y-2.5815
X2.5125Y-2.6717
X2.5125Y-2.7619
X4.79Y-5.425
X4.79Y-5.525
X4.79Y-5.625
X4.89Y-5.425
X4.89Y-5.525
X4.89Y-5.625
T5
X2.0864Y-1.4763
X2.0864Y-1.7834
X2.0884Y-3.3945
X2.0884Y-3.7015
T6
X2.4125Y-2.0997
X2.4125Y-3.0833
T4
G00X2.004Y-6.8057
M15
G01X2.004Y-6.8451
M16
G05
G00X2.0985Y-6.727
M15
G01X2.0985Y-6.7664
M16
G05
G00X2.2442Y-6.8057
M15
G01X2.2442Y-6.8451
M16
G05
G00X2.315Y-6.727
M15
G01X2.315Y-6.7664
M16
G05
G00X2.4607Y-6.8057
M15
G01X2.4607Y-6.8451
M16
G05
T0
M30
