%TF.GenerationSoftware,KiCad,Pcbnew,5.1.9-73d0e3b20d~88~ubuntu20.04.1*%
%TF.CreationDate,2021-05-09T07:06:15+02:00*%
%TF.ProjectId,bkm-129x-scart-vga,626b6d2d-3132-4397-982d-73636172742d,rev?*%
%TF.SameCoordinates,Original*%
%TF.FileFunction,Soldermask,Top*%
%TF.FilePolarity,Negative*%
%FSLAX46Y46*%
G04 Gerber Fmt 4.6, Leading zero omitted, Abs format (unit mm)*
G04 Created by KiCad (PCBNEW 5.1.9-73d0e3b20d~88~ubuntu20.04.1) date 2021-05-09 07:06:15*
%MOMM*%
%LPD*%
G01*
G04 APERTURE LIST*
%ADD10C,1.700000*%
%ADD11C,3.200000*%
%ADD12R,2.500000X2.500000*%
%ADD13C,1.800000*%
%ADD14R,1.500000X1.250000*%
%ADD15R,1.250000X1.500000*%
%ADD16R,1.600000X3.500000*%
%ADD17C,1.524000*%
%ADD18R,1.800000X0.800000*%
%ADD19R,1.500000X1.300000*%
%ADD20R,1.500000X0.450000*%
%ADD21R,1.450000X0.450000*%
%ADD22R,1.560000X0.650000*%
%ADD23R,3.500000X1.600000*%
%ADD24R,1.300000X1.500000*%
%ADD25R,1.900000X0.800000*%
%ADD26R,0.800000X0.900000*%
%ADD27C,4.200000*%
%ADD28R,1.700000X1.700000*%
%ADD29O,1.700000X1.700000*%
%ADD30C,0.100000*%
%ADD31O,1.600000X2.600000*%
G04 APERTURE END LIST*
D10*
%TO.C,SW1*%
X63543500Y-40148600D03*
X61043500Y-40148600D03*
X66043500Y-40148600D03*
X66043500Y-42648600D03*
X63543500Y-42648600D03*
X68543500Y-42648600D03*
X68543500Y-40148600D03*
X61043500Y-42648600D03*
X58543500Y-42648600D03*
X56043500Y-42648600D03*
X56043500Y-40148600D03*
X58543500Y-40148600D03*
D11*
X52993500Y-37498600D03*
X52993500Y-45298600D03*
%TD*%
D12*
%TO.C,J2*%
X52682000Y-104810000D03*
X52682000Y-156810000D03*
D13*
X59309000Y-111760000D03*
X59309000Y-115570000D03*
X59309000Y-119380000D03*
X59309000Y-123190000D03*
X59309000Y-127000000D03*
X59309000Y-130810000D03*
X59309000Y-134620000D03*
X59309000Y-138430000D03*
X59309000Y-142240000D03*
X59309000Y-146050000D03*
X59309000Y-149860000D03*
X54229000Y-113665000D03*
X54229000Y-117475000D03*
X54229000Y-121285000D03*
X54229000Y-125095000D03*
X54229000Y-128905000D03*
X54229000Y-132715000D03*
X54229000Y-136525000D03*
X54229000Y-140335000D03*
X54229000Y-144145000D03*
X54229000Y-147955000D03*
%TD*%
D14*
%TO.C,C1*%
X86124100Y-99822000D03*
X83624100Y-99822000D03*
%TD*%
%TO.C,C2*%
X86124100Y-103314500D03*
X83624100Y-103314500D03*
%TD*%
%TO.C,C3*%
X86124100Y-106807000D03*
X83624100Y-106807000D03*
%TD*%
%TO.C,C4*%
X86124100Y-110299500D03*
X83624100Y-110299500D03*
%TD*%
%TO.C,C5*%
X95903100Y-110299500D03*
X93403100Y-110299500D03*
%TD*%
D15*
%TO.C,C6*%
X116052600Y-97135000D03*
X116052600Y-94635000D03*
%TD*%
D16*
%TO.C,C7*%
X120688100Y-98585000D03*
X120688100Y-93185000D03*
%TD*%
%TO.C,C8*%
X128054100Y-93185000D03*
X128054100Y-98585000D03*
%TD*%
D15*
%TO.C,C9*%
X132753100Y-97135000D03*
X132753100Y-94635000D03*
%TD*%
D17*
%TO.C,J5*%
X141020800Y-65786000D03*
X141020800Y-68326000D03*
X141020800Y-70866000D03*
X141020800Y-73406000D03*
X141020800Y-75946000D03*
X141020800Y-78486000D03*
X141020800Y-81026000D03*
X141020800Y-83566000D03*
X141020800Y-86106000D03*
X141020800Y-88646000D03*
X141020800Y-91186000D03*
X141020800Y-93726000D03*
X141020800Y-96266000D03*
X141020800Y-98806000D03*
X141020800Y-101346000D03*
X141020800Y-103886000D03*
X141020800Y-106426000D03*
X141020800Y-108966000D03*
X141020800Y-111506000D03*
X141020800Y-114046000D03*
X141020800Y-116586000D03*
X141020800Y-119126000D03*
X141020800Y-121666000D03*
X141020800Y-124206000D03*
X141020800Y-126746000D03*
X141020800Y-129286000D03*
X141020800Y-131826000D03*
X141020800Y-134366000D03*
X141020800Y-136906000D03*
X141020800Y-139446000D03*
X141020800Y-141986000D03*
X141020800Y-144526000D03*
X143560800Y-65786000D03*
X143560800Y-68326000D03*
X143560800Y-70866000D03*
X143560800Y-73406000D03*
X143560800Y-75946000D03*
X143560800Y-78486000D03*
X143560800Y-81026000D03*
X143560800Y-83566000D03*
X143560800Y-86106000D03*
X143560800Y-88646000D03*
X143560800Y-91186000D03*
X143560800Y-93726000D03*
X143560800Y-96266000D03*
X143560800Y-98806000D03*
X143560800Y-101346000D03*
X143560800Y-103886000D03*
X143560800Y-106426000D03*
X143560800Y-108966000D03*
X143560800Y-111506000D03*
X143560800Y-114046000D03*
X143560800Y-116586000D03*
X143560800Y-119126000D03*
X143560800Y-121666000D03*
X143560800Y-124206000D03*
X143560800Y-126746000D03*
X143560800Y-129286000D03*
X143560800Y-131826000D03*
X143560800Y-134366000D03*
X143560800Y-136906000D03*
X143560800Y-139446000D03*
X143560800Y-141986000D03*
X143560800Y-144526000D03*
%TD*%
D18*
%TO.C,Q1*%
X133298200Y-144968000D03*
X133298200Y-143068000D03*
X129998200Y-144018000D03*
%TD*%
D19*
%TO.C,R1*%
X121881600Y-112603000D03*
X119181600Y-112603000D03*
%TD*%
%TO.C,R6*%
X104778800Y-101650800D03*
X102078800Y-101650800D03*
%TD*%
%TO.C,R7*%
X104781600Y-103903000D03*
X102081600Y-103903000D03*
%TD*%
%TO.C,R8*%
X104781600Y-106203000D03*
X102081600Y-106203000D03*
%TD*%
%TO.C,R9*%
X104781600Y-108453000D03*
X102081600Y-108453000D03*
%TD*%
%TO.C,R10*%
X81398100Y-110299500D03*
X78698100Y-110299500D03*
%TD*%
%TO.C,R11*%
X81398100Y-106807000D03*
X78698100Y-106807000D03*
%TD*%
%TO.C,R12*%
X81398100Y-103314500D03*
X78698100Y-103314500D03*
%TD*%
%TO.C,R13*%
X81398100Y-99822000D03*
X78698100Y-99822000D03*
%TD*%
%TO.C,R18*%
X119181600Y-110203000D03*
X121881600Y-110203000D03*
%TD*%
%TO.C,R20*%
X121001800Y-122301000D03*
X123701800Y-122301000D03*
%TD*%
%TO.C,R21*%
X115617000Y-122301000D03*
X118317000Y-122301000D03*
%TD*%
%TO.C,R22*%
X132998200Y-140652500D03*
X130298200Y-140652500D03*
%TD*%
%TO.C,R23*%
X99208600Y-121793000D03*
X101908600Y-121793000D03*
%TD*%
%TO.C,R24*%
X115642400Y-129362200D03*
X118342400Y-129362200D03*
%TD*%
%TO.C,R25*%
X121001800Y-127000000D03*
X123701800Y-127000000D03*
%TD*%
%TO.C,R26*%
X115617000Y-127000000D03*
X118317000Y-127000000D03*
%TD*%
%TO.C,R27*%
X121001800Y-124663200D03*
X123701800Y-124663200D03*
%TD*%
%TO.C,R28*%
X115617000Y-124663200D03*
X118317000Y-124663200D03*
%TD*%
D20*
%TO.C,U1*%
X125781600Y-108078000D03*
X125781600Y-107428000D03*
X125781600Y-106778000D03*
X125781600Y-106128000D03*
X125781600Y-105478000D03*
X125781600Y-104828000D03*
X125781600Y-104178000D03*
X125781600Y-103528000D03*
X119881600Y-103528000D03*
X119881600Y-104178000D03*
X119881600Y-104828000D03*
X119881600Y-105478000D03*
X119881600Y-106128000D03*
X119881600Y-106778000D03*
X119881600Y-107428000D03*
X119881600Y-108078000D03*
%TD*%
D17*
%TO.C,U3*%
X122440700Y-132715000D03*
X119900700Y-132715000D03*
X117360700Y-132715000D03*
X114820700Y-132715000D03*
X112280700Y-132715000D03*
X109740700Y-132715000D03*
X107200700Y-132715000D03*
X104660700Y-132715000D03*
X102120700Y-132715000D03*
X99580700Y-132715000D03*
X97040700Y-132715000D03*
X94500700Y-132715000D03*
X91960700Y-132715000D03*
X89420700Y-132715000D03*
X86880700Y-132715000D03*
X86880700Y-147955000D03*
X89420700Y-147955000D03*
X91960700Y-147955000D03*
X94500700Y-147955000D03*
X97040700Y-147955000D03*
X99580700Y-147955000D03*
X102120700Y-147955000D03*
X104660700Y-147955000D03*
X107200700Y-147955000D03*
X109740700Y-147955000D03*
X112280700Y-147955000D03*
X114820700Y-147955000D03*
X117360700Y-147955000D03*
X119900700Y-147955000D03*
X122440700Y-147955000D03*
%TD*%
D21*
%TO.C,U2*%
X91703100Y-104095000D03*
X91703100Y-104745000D03*
X91703100Y-105395000D03*
X91703100Y-106045000D03*
X91703100Y-106695000D03*
X91703100Y-107345000D03*
X91703100Y-107995000D03*
X97603100Y-107995000D03*
X97603100Y-107345000D03*
X97603100Y-106695000D03*
X97603100Y-106045000D03*
X97603100Y-105395000D03*
X97603100Y-104745000D03*
X97603100Y-104095000D03*
%TD*%
%TO.C,U4*%
X97583200Y-124034000D03*
X97583200Y-124684000D03*
X97583200Y-125334000D03*
X97583200Y-125984000D03*
X97583200Y-126634000D03*
X97583200Y-127284000D03*
X97583200Y-127934000D03*
X103483200Y-127934000D03*
X103483200Y-127284000D03*
X103483200Y-126634000D03*
X103483200Y-125984000D03*
X103483200Y-125334000D03*
X103483200Y-124684000D03*
X103483200Y-124034000D03*
%TD*%
D14*
%TO.C,C10*%
X96590800Y-99009200D03*
X99090800Y-99009200D03*
%TD*%
%TO.C,C11*%
X99090800Y-92760800D03*
X96590800Y-92760800D03*
%TD*%
D22*
%TO.C,U5*%
X99317800Y-96835000D03*
X99317800Y-95885000D03*
X99317800Y-94935000D03*
X96617800Y-94935000D03*
X96617800Y-96835000D03*
%TD*%
D14*
%TO.C,C12*%
X132150800Y-116255800D03*
X134650800Y-116255800D03*
%TD*%
D23*
%TO.C,C13*%
X130700800Y-120904000D03*
X136100800Y-120904000D03*
%TD*%
D19*
%TO.C,R19*%
X99208600Y-119507000D03*
X101908600Y-119507000D03*
%TD*%
%TO.C,R32*%
X109181600Y-101653000D03*
X111881600Y-101653000D03*
%TD*%
%TO.C,R33*%
X109181600Y-103903000D03*
X111881600Y-103903000D03*
%TD*%
%TO.C,R34*%
X109181600Y-106203000D03*
X111881600Y-106203000D03*
%TD*%
%TO.C,R2*%
X64088000Y-31940500D03*
X61388000Y-31940500D03*
%TD*%
%TO.C,R3*%
X70869800Y-34937700D03*
X68169800Y-34937700D03*
%TD*%
D24*
%TO.C,R4*%
X75349100Y-34230300D03*
X75349100Y-31530300D03*
%TD*%
%TO.C,R5*%
X78308200Y-34230300D03*
X78308200Y-31530300D03*
%TD*%
D25*
%TO.C,Q2*%
X71286500Y-32915900D03*
X71286500Y-31015900D03*
X68286500Y-31965900D03*
%TD*%
D19*
%TO.C,R14*%
X61388000Y-34950400D03*
X64088000Y-34950400D03*
%TD*%
D26*
%TO.C,D1*%
X52586600Y-34417000D03*
X50486600Y-34417000D03*
%TD*%
%TO.C,D2*%
X52612000Y-48514000D03*
X50512000Y-48514000D03*
%TD*%
D19*
%TO.C,R15*%
X57594500Y-34417000D03*
X54894500Y-34417000D03*
%TD*%
%TO.C,R16*%
X57738000Y-48514000D03*
X55038000Y-48514000D03*
%TD*%
D13*
%TO.C,J1*%
X63817500Y-65570100D03*
X58737500Y-65570100D03*
X58737500Y-67861180D03*
X58737500Y-70152260D03*
X58737500Y-63279020D03*
X58737500Y-60987940D03*
X61277500Y-62141100D03*
X61277500Y-64432180D03*
X61277500Y-66723260D03*
X61277500Y-69014340D03*
X61277500Y-71305420D03*
X63817500Y-63279020D03*
X63817500Y-60987940D03*
X63817500Y-67861180D03*
X63817500Y-70152260D03*
D27*
X61277500Y-78315820D03*
X61277500Y-53332380D03*
%TD*%
D14*
%TO.C,C15*%
X98836800Y-143383000D03*
X96336800Y-143383000D03*
%TD*%
%TO.C,C16*%
X114967700Y-138290300D03*
X117467700Y-138290300D03*
%TD*%
%TO.C,C17*%
X97606800Y-145288000D03*
X100106800Y-145288000D03*
%TD*%
D28*
%TO.C,J6*%
X124206000Y-142875000D03*
D29*
X121666000Y-142875000D03*
X124206000Y-140335000D03*
X121666000Y-140335000D03*
X124206000Y-137795000D03*
X121666000Y-137795000D03*
%TD*%
D10*
%TO.C,SW2*%
X63594300Y-88869200D03*
X61094300Y-88869200D03*
X66094300Y-88869200D03*
X66094300Y-91369200D03*
X63594300Y-91369200D03*
X68594300Y-91369200D03*
X68594300Y-88869200D03*
X61094300Y-91369200D03*
X58594300Y-91369200D03*
X56094300Y-91369200D03*
X56094300Y-88869200D03*
X58594300Y-88869200D03*
D11*
X53044300Y-86219200D03*
X53044300Y-94019200D03*
%TD*%
D30*
%TO.C,U6*%
G36*
X111274334Y-138562255D02*
G01*
X111663243Y-138951164D01*
X110531872Y-140082535D01*
X110142963Y-139693626D01*
X111274334Y-138562255D01*
G37*
G36*
X110708648Y-137996570D02*
G01*
X111097557Y-138385479D01*
X109966186Y-139516850D01*
X109577277Y-139127941D01*
X110708648Y-137996570D01*
G37*
G36*
X110142963Y-137430884D02*
G01*
X110531872Y-137819793D01*
X109400501Y-138951164D01*
X109011592Y-138562255D01*
X110142963Y-137430884D01*
G37*
G36*
X109577278Y-136865199D02*
G01*
X109966187Y-137254108D01*
X108834816Y-138385479D01*
X108445907Y-137996570D01*
X109577278Y-136865199D01*
G37*
G36*
X109011592Y-136299513D02*
G01*
X109400501Y-136688422D01*
X108269130Y-137819793D01*
X107880221Y-137430884D01*
X109011592Y-136299513D01*
G37*
G36*
X108445907Y-135733828D02*
G01*
X108834816Y-136122737D01*
X107703445Y-137254108D01*
X107314536Y-136865199D01*
X108445907Y-135733828D01*
G37*
G36*
X107880221Y-135168143D02*
G01*
X108269130Y-135557052D01*
X107137759Y-136688423D01*
X106748850Y-136299514D01*
X107880221Y-135168143D01*
G37*
G36*
X107314536Y-134602457D02*
G01*
X107703445Y-134991366D01*
X106572074Y-136122737D01*
X106183165Y-135733828D01*
X107314536Y-134602457D01*
G37*
G36*
X104132555Y-134991366D02*
G01*
X104521464Y-134602457D01*
X105652835Y-135733828D01*
X105263926Y-136122737D01*
X104132555Y-134991366D01*
G37*
G36*
X103566870Y-135557052D02*
G01*
X103955779Y-135168143D01*
X105087150Y-136299514D01*
X104698241Y-136688423D01*
X103566870Y-135557052D01*
G37*
G36*
X103001184Y-136122737D02*
G01*
X103390093Y-135733828D01*
X104521464Y-136865199D01*
X104132555Y-137254108D01*
X103001184Y-136122737D01*
G37*
G36*
X102435499Y-136688422D02*
G01*
X102824408Y-136299513D01*
X103955779Y-137430884D01*
X103566870Y-137819793D01*
X102435499Y-136688422D01*
G37*
G36*
X101869813Y-137254108D02*
G01*
X102258722Y-136865199D01*
X103390093Y-137996570D01*
X103001184Y-138385479D01*
X101869813Y-137254108D01*
G37*
G36*
X101304128Y-137819793D02*
G01*
X101693037Y-137430884D01*
X102824408Y-138562255D01*
X102435499Y-138951164D01*
X101304128Y-137819793D01*
G37*
G36*
X100738443Y-138385479D02*
G01*
X101127352Y-137996570D01*
X102258723Y-139127941D01*
X101869814Y-139516850D01*
X100738443Y-138385479D01*
G37*
G36*
X100172757Y-138951164D02*
G01*
X100561666Y-138562255D01*
X101693037Y-139693626D01*
X101304128Y-140082535D01*
X100172757Y-138951164D01*
G37*
G36*
X101304128Y-140612865D02*
G01*
X101693037Y-141001774D01*
X100561666Y-142133145D01*
X100172757Y-141744236D01*
X101304128Y-140612865D01*
G37*
G36*
X101869814Y-141178550D02*
G01*
X102258723Y-141567459D01*
X101127352Y-142698830D01*
X100738443Y-142309921D01*
X101869814Y-141178550D01*
G37*
G36*
X102435499Y-141744236D02*
G01*
X102824408Y-142133145D01*
X101693037Y-143264516D01*
X101304128Y-142875607D01*
X102435499Y-141744236D01*
G37*
G36*
X103001184Y-142309921D02*
G01*
X103390093Y-142698830D01*
X102258722Y-143830201D01*
X101869813Y-143441292D01*
X103001184Y-142309921D01*
G37*
G36*
X103566870Y-142875607D02*
G01*
X103955779Y-143264516D01*
X102824408Y-144395887D01*
X102435499Y-144006978D01*
X103566870Y-142875607D01*
G37*
G36*
X104132555Y-143441292D02*
G01*
X104521464Y-143830201D01*
X103390093Y-144961572D01*
X103001184Y-144572663D01*
X104132555Y-143441292D01*
G37*
G36*
X104698241Y-144006977D02*
G01*
X105087150Y-144395886D01*
X103955779Y-145527257D01*
X103566870Y-145138348D01*
X104698241Y-144006977D01*
G37*
G36*
X105263926Y-144572663D02*
G01*
X105652835Y-144961572D01*
X104521464Y-146092943D01*
X104132555Y-145704034D01*
X105263926Y-144572663D01*
G37*
G36*
X106183165Y-144961572D02*
G01*
X106572074Y-144572663D01*
X107703445Y-145704034D01*
X107314536Y-146092943D01*
X106183165Y-144961572D01*
G37*
G36*
X106748850Y-144395886D02*
G01*
X107137759Y-144006977D01*
X108269130Y-145138348D01*
X107880221Y-145527257D01*
X106748850Y-144395886D01*
G37*
G36*
X107314536Y-143830201D02*
G01*
X107703445Y-143441292D01*
X108834816Y-144572663D01*
X108445907Y-144961572D01*
X107314536Y-143830201D01*
G37*
G36*
X107880221Y-143264516D02*
G01*
X108269130Y-142875607D01*
X109400501Y-144006978D01*
X109011592Y-144395887D01*
X107880221Y-143264516D01*
G37*
G36*
X108445907Y-142698830D02*
G01*
X108834816Y-142309921D01*
X109966187Y-143441292D01*
X109577278Y-143830201D01*
X108445907Y-142698830D01*
G37*
G36*
X109011592Y-142133145D02*
G01*
X109400501Y-141744236D01*
X110531872Y-142875607D01*
X110142963Y-143264516D01*
X109011592Y-142133145D01*
G37*
G36*
X109577277Y-141567459D02*
G01*
X109966186Y-141178550D01*
X111097557Y-142309921D01*
X110708648Y-142698830D01*
X109577277Y-141567459D01*
G37*
G36*
X110142963Y-141001774D02*
G01*
X110531872Y-140612865D01*
X111663243Y-141744236D01*
X111274334Y-142133145D01*
X110142963Y-141001774D01*
G37*
%TD*%
%TO.C,Y1*%
G36*
X112319173Y-134508770D02*
G01*
X110975670Y-135852273D01*
X110692827Y-135569430D01*
X112036330Y-134225927D01*
X112319173Y-134508770D01*
G37*
G36*
X111470645Y-133660242D02*
G01*
X110127142Y-135003745D01*
X109844299Y-134720902D01*
X111187802Y-133377399D01*
X111470645Y-133660242D01*
G37*
G36*
X113167701Y-135357298D02*
G01*
X111824198Y-136700801D01*
X111541355Y-136417958D01*
X112884858Y-135074455D01*
X113167701Y-135357298D01*
G37*
%TD*%
D31*
%TO.C,J3*%
X50901600Y-173366000D03*
X53301600Y-171366000D03*
X57001600Y-173366000D03*
X58801600Y-171366000D03*
X62501600Y-173366000D03*
%TD*%
M02*
