%TF.GenerationSoftware,KiCad,Pcbnew,5.1.9-73d0e3b20d~88~ubuntu20.04.1*%
%TF.CreationDate,2021-05-09T07:06:15+02:00*%
%TF.ProjectId,bkm-129x-scart-vga,626b6d2d-3132-4397-982d-73636172742d,rev?*%
%TF.SameCoordinates,Original*%
%TF.FileFunction,Soldermask,Bot*%
%TF.FilePolarity,Negative*%
%FSLAX46Y46*%
G04 Gerber Fmt 4.6, Leading zero omitted, Abs format (unit mm)*
G04 Created by KiCad (PCBNEW 5.1.9-73d0e3b20d~88~ubuntu20.04.1) date 2021-05-09 07:06:15*
%MOMM*%
%LPD*%
G01*
G04 APERTURE LIST*
%ADD10C,1.700000*%
%ADD11C,3.200000*%
%ADD12R,2.500000X2.500000*%
%ADD13C,1.800000*%
%ADD14C,1.524000*%
%ADD15C,4.200000*%
%ADD16R,1.700000X1.700000*%
%ADD17O,1.700000X1.700000*%
%ADD18O,1.600000X2.600000*%
G04 APERTURE END LIST*
D10*
%TO.C,SW1*%
X63543500Y-40148600D03*
X61043500Y-40148600D03*
X66043500Y-40148600D03*
X66043500Y-42648600D03*
X63543500Y-42648600D03*
X68543500Y-42648600D03*
X68543500Y-40148600D03*
X61043500Y-42648600D03*
X58543500Y-42648600D03*
X56043500Y-42648600D03*
X56043500Y-40148600D03*
X58543500Y-40148600D03*
D11*
X52993500Y-37498600D03*
X52993500Y-45298600D03*
%TD*%
D12*
%TO.C,J2*%
X52682000Y-104810000D03*
X52682000Y-156810000D03*
D13*
X59309000Y-111760000D03*
X59309000Y-115570000D03*
X59309000Y-119380000D03*
X59309000Y-123190000D03*
X59309000Y-127000000D03*
X59309000Y-130810000D03*
X59309000Y-134620000D03*
X59309000Y-138430000D03*
X59309000Y-142240000D03*
X59309000Y-146050000D03*
X59309000Y-149860000D03*
X54229000Y-113665000D03*
X54229000Y-117475000D03*
X54229000Y-121285000D03*
X54229000Y-125095000D03*
X54229000Y-128905000D03*
X54229000Y-132715000D03*
X54229000Y-136525000D03*
X54229000Y-140335000D03*
X54229000Y-144145000D03*
X54229000Y-147955000D03*
%TD*%
D14*
%TO.C,J5*%
X141020800Y-65786000D03*
X141020800Y-68326000D03*
X141020800Y-70866000D03*
X141020800Y-73406000D03*
X141020800Y-75946000D03*
X141020800Y-78486000D03*
X141020800Y-81026000D03*
X141020800Y-83566000D03*
X141020800Y-86106000D03*
X141020800Y-88646000D03*
X141020800Y-91186000D03*
X141020800Y-93726000D03*
X141020800Y-96266000D03*
X141020800Y-98806000D03*
X141020800Y-101346000D03*
X141020800Y-103886000D03*
X141020800Y-106426000D03*
X141020800Y-108966000D03*
X141020800Y-111506000D03*
X141020800Y-114046000D03*
X141020800Y-116586000D03*
X141020800Y-119126000D03*
X141020800Y-121666000D03*
X141020800Y-124206000D03*
X141020800Y-126746000D03*
X141020800Y-129286000D03*
X141020800Y-131826000D03*
X141020800Y-134366000D03*
X141020800Y-136906000D03*
X141020800Y-139446000D03*
X141020800Y-141986000D03*
X141020800Y-144526000D03*
X143560800Y-65786000D03*
X143560800Y-68326000D03*
X143560800Y-70866000D03*
X143560800Y-73406000D03*
X143560800Y-75946000D03*
X143560800Y-78486000D03*
X143560800Y-81026000D03*
X143560800Y-83566000D03*
X143560800Y-86106000D03*
X143560800Y-88646000D03*
X143560800Y-91186000D03*
X143560800Y-93726000D03*
X143560800Y-96266000D03*
X143560800Y-98806000D03*
X143560800Y-101346000D03*
X143560800Y-103886000D03*
X143560800Y-106426000D03*
X143560800Y-108966000D03*
X143560800Y-111506000D03*
X143560800Y-114046000D03*
X143560800Y-116586000D03*
X143560800Y-119126000D03*
X143560800Y-121666000D03*
X143560800Y-124206000D03*
X143560800Y-126746000D03*
X143560800Y-129286000D03*
X143560800Y-131826000D03*
X143560800Y-134366000D03*
X143560800Y-136906000D03*
X143560800Y-139446000D03*
X143560800Y-141986000D03*
X143560800Y-144526000D03*
%TD*%
%TO.C,U3*%
X122440700Y-132715000D03*
X119900700Y-132715000D03*
X117360700Y-132715000D03*
X114820700Y-132715000D03*
X112280700Y-132715000D03*
X109740700Y-132715000D03*
X107200700Y-132715000D03*
X104660700Y-132715000D03*
X102120700Y-132715000D03*
X99580700Y-132715000D03*
X97040700Y-132715000D03*
X94500700Y-132715000D03*
X91960700Y-132715000D03*
X89420700Y-132715000D03*
X86880700Y-132715000D03*
X86880700Y-147955000D03*
X89420700Y-147955000D03*
X91960700Y-147955000D03*
X94500700Y-147955000D03*
X97040700Y-147955000D03*
X99580700Y-147955000D03*
X102120700Y-147955000D03*
X104660700Y-147955000D03*
X107200700Y-147955000D03*
X109740700Y-147955000D03*
X112280700Y-147955000D03*
X114820700Y-147955000D03*
X117360700Y-147955000D03*
X119900700Y-147955000D03*
X122440700Y-147955000D03*
%TD*%
D13*
%TO.C,J1*%
X63817500Y-65570100D03*
X58737500Y-65570100D03*
X58737500Y-67861180D03*
X58737500Y-70152260D03*
X58737500Y-63279020D03*
X58737500Y-60987940D03*
X61277500Y-62141100D03*
X61277500Y-64432180D03*
X61277500Y-66723260D03*
X61277500Y-69014340D03*
X61277500Y-71305420D03*
X63817500Y-63279020D03*
X63817500Y-60987940D03*
X63817500Y-67861180D03*
X63817500Y-70152260D03*
D15*
X61277500Y-78315820D03*
X61277500Y-53332380D03*
%TD*%
D16*
%TO.C,J6*%
X124206000Y-142875000D03*
D17*
X121666000Y-142875000D03*
X124206000Y-140335000D03*
X121666000Y-140335000D03*
X124206000Y-137795000D03*
X121666000Y-137795000D03*
%TD*%
D10*
%TO.C,SW2*%
X63594300Y-88869200D03*
X61094300Y-88869200D03*
X66094300Y-88869200D03*
X66094300Y-91369200D03*
X63594300Y-91369200D03*
X68594300Y-91369200D03*
X68594300Y-88869200D03*
X61094300Y-91369200D03*
X58594300Y-91369200D03*
X56094300Y-91369200D03*
X56094300Y-88869200D03*
X58594300Y-88869200D03*
D11*
X53044300Y-86219200D03*
X53044300Y-94019200D03*
%TD*%
D18*
%TO.C,J3*%
X50901600Y-173366000D03*
X53301600Y-171366000D03*
X57001600Y-173366000D03*
X58801600Y-171366000D03*
X62501600Y-173366000D03*
%TD*%
M02*
