%TF.GenerationSoftware,KiCad,Pcbnew,5.1.12-84ad8e8a86~92~ubuntu20.04.1*%
%TF.CreationDate,2022-05-20T05:31:59+02:00*%
%TF.ProjectId,bkm-129x-scart-vga,626b6d2d-3132-4397-982d-73636172742d,rev?*%
%TF.SameCoordinates,Original*%
%TF.FileFunction,Soldermask,Top*%
%TF.FilePolarity,Negative*%
%FSLAX46Y46*%
G04 Gerber Fmt 4.6, Leading zero omitted, Abs format (unit mm)*
G04 Created by KiCad (PCBNEW 5.1.12-84ad8e8a86~92~ubuntu20.04.1) date 2022-05-20 05:31:59*
%MOMM*%
%LPD*%
G01*
G04 APERTURE LIST*
%ADD10C,1.700000*%
%ADD11C,3.200000*%
%ADD12R,2.500000X2.500000*%
%ADD13C,1.800000*%
%ADD14C,1.524000*%
%ADD15C,4.200000*%
%ADD16R,1.700000X1.700000*%
%ADD17O,1.700000X1.700000*%
%ADD18O,1.600000X2.600000*%
%ADD19R,2.000000X3.800000*%
%ADD20R,2.000000X1.500000*%
%ADD21R,1.560000X0.650000*%
%ADD22C,0.100000*%
%ADD23R,1.800000X0.800000*%
%ADD24R,1.900000X0.800000*%
G04 APERTURE END LIST*
D10*
%TO.C,J5*%
X143560800Y-144526000D03*
X143560800Y-141986000D03*
X143560800Y-139446000D03*
X143560800Y-136906000D03*
X143560800Y-134366000D03*
X143560800Y-131826000D03*
X143560800Y-129286000D03*
X143560800Y-126746000D03*
X143560800Y-124206000D03*
X143560800Y-121666000D03*
X143560800Y-119126000D03*
X143560800Y-116586000D03*
X143560800Y-114046000D03*
X143560800Y-111506000D03*
X143560800Y-108966000D03*
X143560800Y-106426000D03*
X143560800Y-103886000D03*
X143560800Y-101346000D03*
X143560800Y-98806000D03*
X143560800Y-96266000D03*
X143560800Y-93726000D03*
X143560800Y-91186000D03*
X143560800Y-88646000D03*
X143560800Y-86106000D03*
X143560800Y-83566000D03*
X143560800Y-81026000D03*
X143560800Y-78486000D03*
X143560800Y-75946000D03*
X143560800Y-73406000D03*
X143560800Y-70866000D03*
X143560800Y-68326000D03*
X143560800Y-65786000D03*
X141020800Y-144526000D03*
X141020800Y-141986000D03*
X141020800Y-139446000D03*
X141020800Y-136906000D03*
X141020800Y-134366000D03*
X141020800Y-131826000D03*
X141020800Y-129286000D03*
X141020800Y-126746000D03*
X141020800Y-124206000D03*
X141020800Y-121666000D03*
X141020800Y-119126000D03*
X141020800Y-116586000D03*
X141020800Y-114046000D03*
X141020800Y-111506000D03*
X141020800Y-108966000D03*
X141020800Y-106426000D03*
X141020800Y-103886000D03*
X141020800Y-101346000D03*
X141020800Y-98806000D03*
X141020800Y-96266000D03*
X141020800Y-93726000D03*
X141020800Y-91186000D03*
X141020800Y-88646000D03*
X141020800Y-86106000D03*
X141020800Y-83566000D03*
X141020800Y-81026000D03*
X141020800Y-78486000D03*
X141020800Y-75946000D03*
X141020800Y-73406000D03*
X141020800Y-70866000D03*
X141020800Y-68326000D03*
X141020800Y-65786000D03*
%TD*%
%TO.C,SW1*%
X63543500Y-40148600D03*
X61043500Y-40148600D03*
X66043500Y-40148600D03*
X66043500Y-42648600D03*
X63543500Y-42648600D03*
X68543500Y-42648600D03*
X68543500Y-40148600D03*
X61043500Y-42648600D03*
X58543500Y-42648600D03*
X56043500Y-42648600D03*
X56043500Y-40148600D03*
X58543500Y-40148600D03*
D11*
X52993500Y-37498600D03*
X52993500Y-45298600D03*
%TD*%
D12*
%TO.C,J2*%
X52682000Y-104810000D03*
X52682000Y-156810000D03*
D13*
X59309000Y-111760000D03*
X59309000Y-115570000D03*
X59309000Y-119380000D03*
X59309000Y-123190000D03*
X59309000Y-127000000D03*
X59309000Y-130810000D03*
X59309000Y-134620000D03*
X59309000Y-138430000D03*
X59309000Y-142240000D03*
X59309000Y-146050000D03*
X59309000Y-149860000D03*
X54229000Y-113665000D03*
X54229000Y-117475000D03*
X54229000Y-121285000D03*
X54229000Y-125095000D03*
X54229000Y-128905000D03*
X54229000Y-132715000D03*
X54229000Y-136525000D03*
X54229000Y-140335000D03*
X54229000Y-144145000D03*
X54229000Y-147955000D03*
%TD*%
D14*
%TO.C,U3*%
X122440700Y-132715000D03*
X119900700Y-132715000D03*
X117360700Y-132715000D03*
X114820700Y-132715000D03*
X112280700Y-132715000D03*
X109740700Y-132715000D03*
X107200700Y-132715000D03*
X104660700Y-132715000D03*
X102120700Y-132715000D03*
X99580700Y-132715000D03*
X97040700Y-132715000D03*
X94500700Y-132715000D03*
X91960700Y-132715000D03*
X89420700Y-132715000D03*
X86880700Y-132715000D03*
X86880700Y-147955000D03*
X89420700Y-147955000D03*
X91960700Y-147955000D03*
X94500700Y-147955000D03*
X97040700Y-147955000D03*
X99580700Y-147955000D03*
X102120700Y-147955000D03*
X104660700Y-147955000D03*
X107200700Y-147955000D03*
X109740700Y-147955000D03*
X112280700Y-147955000D03*
X114820700Y-147955000D03*
X117360700Y-147955000D03*
X119900700Y-147955000D03*
X122440700Y-147955000D03*
%TD*%
D13*
%TO.C,J1*%
X63817500Y-65570100D03*
X58737500Y-65570100D03*
X58737500Y-67861180D03*
X58737500Y-70152260D03*
X58737500Y-63279020D03*
X58737500Y-60987940D03*
X61277500Y-62141100D03*
X61277500Y-64432180D03*
X61277500Y-66723260D03*
X61277500Y-69014340D03*
X61277500Y-71305420D03*
X63817500Y-63279020D03*
X63817500Y-60987940D03*
X63817500Y-67861180D03*
X63817500Y-70152260D03*
D15*
X61277500Y-78315820D03*
X61277500Y-53332380D03*
%TD*%
D16*
%TO.C,J6*%
X124206000Y-142875000D03*
D17*
X121666000Y-142875000D03*
X124206000Y-140335000D03*
X121666000Y-140335000D03*
X124206000Y-137795000D03*
X121666000Y-137795000D03*
%TD*%
D10*
%TO.C,SW2*%
X63594300Y-88869200D03*
X61094300Y-88869200D03*
X66094300Y-88869200D03*
X66094300Y-91369200D03*
X63594300Y-91369200D03*
X68594300Y-91369200D03*
X68594300Y-88869200D03*
X61094300Y-91369200D03*
X58594300Y-91369200D03*
X56094300Y-91369200D03*
X56094300Y-88869200D03*
X58594300Y-88869200D03*
D11*
X53044300Y-86219200D03*
X53044300Y-94019200D03*
%TD*%
D18*
%TO.C,J3*%
X50901600Y-173366000D03*
X53301600Y-171366000D03*
X57001600Y-173366000D03*
X58801600Y-171366000D03*
X62501600Y-173366000D03*
%TD*%
D19*
%TO.C,U101*%
X109611560Y-92461080D03*
D20*
X103311560Y-92461080D03*
X103311560Y-94761080D03*
X103311560Y-90161080D03*
%TD*%
%TO.C,C101*%
G36*
G01*
X102831880Y-98671800D02*
X103781880Y-98671800D01*
G75*
G02*
X104031880Y-98921800I0J-250000D01*
G01*
X104031880Y-99596800D01*
G75*
G02*
X103781880Y-99846800I-250000J0D01*
G01*
X102831880Y-99846800D01*
G75*
G02*
X102581880Y-99596800I0J250000D01*
G01*
X102581880Y-98921800D01*
G75*
G02*
X102831880Y-98671800I250000J0D01*
G01*
G37*
G36*
G01*
X102831880Y-96596800D02*
X103781880Y-96596800D01*
G75*
G02*
X104031880Y-96846800I0J-250000D01*
G01*
X104031880Y-97521800D01*
G75*
G02*
X103781880Y-97771800I-250000J0D01*
G01*
X102831880Y-97771800D01*
G75*
G02*
X102581880Y-97521800I0J250000D01*
G01*
X102581880Y-96846800D01*
G75*
G02*
X102831880Y-96596800I250000J0D01*
G01*
G37*
%TD*%
%TO.C,C102*%
G36*
G01*
X111574560Y-91872400D02*
X112524560Y-91872400D01*
G75*
G02*
X112774560Y-92122400I0J-250000D01*
G01*
X112774560Y-92797400D01*
G75*
G02*
X112524560Y-93047400I-250000J0D01*
G01*
X111574560Y-93047400D01*
G75*
G02*
X111324560Y-92797400I0J250000D01*
G01*
X111324560Y-92122400D01*
G75*
G02*
X111574560Y-91872400I250000J0D01*
G01*
G37*
G36*
G01*
X111574560Y-93947400D02*
X112524560Y-93947400D01*
G75*
G02*
X112774560Y-94197400I0J-250000D01*
G01*
X112774560Y-94872400D01*
G75*
G02*
X112524560Y-95122400I-250000J0D01*
G01*
X111574560Y-95122400D01*
G75*
G02*
X111324560Y-94872400I0J250000D01*
G01*
X111324560Y-94197400D01*
G75*
G02*
X111574560Y-93947400I250000J0D01*
G01*
G37*
%TD*%
%TO.C,C1*%
G36*
G01*
X86499100Y-99347000D02*
X86499100Y-100297000D01*
G75*
G02*
X86249100Y-100547000I-250000J0D01*
G01*
X85574100Y-100547000D01*
G75*
G02*
X85324100Y-100297000I0J250000D01*
G01*
X85324100Y-99347000D01*
G75*
G02*
X85574100Y-99097000I250000J0D01*
G01*
X86249100Y-99097000D01*
G75*
G02*
X86499100Y-99347000I0J-250000D01*
G01*
G37*
G36*
G01*
X84424100Y-99347000D02*
X84424100Y-100297000D01*
G75*
G02*
X84174100Y-100547000I-250000J0D01*
G01*
X83499100Y-100547000D01*
G75*
G02*
X83249100Y-100297000I0J250000D01*
G01*
X83249100Y-99347000D01*
G75*
G02*
X83499100Y-99097000I250000J0D01*
G01*
X84174100Y-99097000D01*
G75*
G02*
X84424100Y-99347000I0J-250000D01*
G01*
G37*
%TD*%
%TO.C,C2*%
G36*
G01*
X86499100Y-102839500D02*
X86499100Y-103789500D01*
G75*
G02*
X86249100Y-104039500I-250000J0D01*
G01*
X85574100Y-104039500D01*
G75*
G02*
X85324100Y-103789500I0J250000D01*
G01*
X85324100Y-102839500D01*
G75*
G02*
X85574100Y-102589500I250000J0D01*
G01*
X86249100Y-102589500D01*
G75*
G02*
X86499100Y-102839500I0J-250000D01*
G01*
G37*
G36*
G01*
X84424100Y-102839500D02*
X84424100Y-103789500D01*
G75*
G02*
X84174100Y-104039500I-250000J0D01*
G01*
X83499100Y-104039500D01*
G75*
G02*
X83249100Y-103789500I0J250000D01*
G01*
X83249100Y-102839500D01*
G75*
G02*
X83499100Y-102589500I250000J0D01*
G01*
X84174100Y-102589500D01*
G75*
G02*
X84424100Y-102839500I0J-250000D01*
G01*
G37*
%TD*%
%TO.C,C3*%
G36*
G01*
X84424100Y-106332000D02*
X84424100Y-107282000D01*
G75*
G02*
X84174100Y-107532000I-250000J0D01*
G01*
X83499100Y-107532000D01*
G75*
G02*
X83249100Y-107282000I0J250000D01*
G01*
X83249100Y-106332000D01*
G75*
G02*
X83499100Y-106082000I250000J0D01*
G01*
X84174100Y-106082000D01*
G75*
G02*
X84424100Y-106332000I0J-250000D01*
G01*
G37*
G36*
G01*
X86499100Y-106332000D02*
X86499100Y-107282000D01*
G75*
G02*
X86249100Y-107532000I-250000J0D01*
G01*
X85574100Y-107532000D01*
G75*
G02*
X85324100Y-107282000I0J250000D01*
G01*
X85324100Y-106332000D01*
G75*
G02*
X85574100Y-106082000I250000J0D01*
G01*
X86249100Y-106082000D01*
G75*
G02*
X86499100Y-106332000I0J-250000D01*
G01*
G37*
%TD*%
%TO.C,C4*%
G36*
G01*
X84424100Y-109824500D02*
X84424100Y-110774500D01*
G75*
G02*
X84174100Y-111024500I-250000J0D01*
G01*
X83499100Y-111024500D01*
G75*
G02*
X83249100Y-110774500I0J250000D01*
G01*
X83249100Y-109824500D01*
G75*
G02*
X83499100Y-109574500I250000J0D01*
G01*
X84174100Y-109574500D01*
G75*
G02*
X84424100Y-109824500I0J-250000D01*
G01*
G37*
G36*
G01*
X86499100Y-109824500D02*
X86499100Y-110774500D01*
G75*
G02*
X86249100Y-111024500I-250000J0D01*
G01*
X85574100Y-111024500D01*
G75*
G02*
X85324100Y-110774500I0J250000D01*
G01*
X85324100Y-109824500D01*
G75*
G02*
X85574100Y-109574500I250000J0D01*
G01*
X86249100Y-109574500D01*
G75*
G02*
X86499100Y-109824500I0J-250000D01*
G01*
G37*
%TD*%
%TO.C,C5*%
G36*
G01*
X96278100Y-109824500D02*
X96278100Y-110774500D01*
G75*
G02*
X96028100Y-111024500I-250000J0D01*
G01*
X95353100Y-111024500D01*
G75*
G02*
X95103100Y-110774500I0J250000D01*
G01*
X95103100Y-109824500D01*
G75*
G02*
X95353100Y-109574500I250000J0D01*
G01*
X96028100Y-109574500D01*
G75*
G02*
X96278100Y-109824500I0J-250000D01*
G01*
G37*
G36*
G01*
X94203100Y-109824500D02*
X94203100Y-110774500D01*
G75*
G02*
X93953100Y-111024500I-250000J0D01*
G01*
X93278100Y-111024500D01*
G75*
G02*
X93028100Y-110774500I0J250000D01*
G01*
X93028100Y-109824500D01*
G75*
G02*
X93278100Y-109574500I250000J0D01*
G01*
X93953100Y-109574500D01*
G75*
G02*
X94203100Y-109824500I0J-250000D01*
G01*
G37*
%TD*%
%TO.C,C6*%
G36*
G01*
X116527600Y-95625500D02*
X115577600Y-95625500D01*
G75*
G02*
X115327600Y-95375500I0J250000D01*
G01*
X115327600Y-94700500D01*
G75*
G02*
X115577600Y-94450500I250000J0D01*
G01*
X116527600Y-94450500D01*
G75*
G02*
X116777600Y-94700500I0J-250000D01*
G01*
X116777600Y-95375500D01*
G75*
G02*
X116527600Y-95625500I-250000J0D01*
G01*
G37*
G36*
G01*
X116527600Y-97700500D02*
X115577600Y-97700500D01*
G75*
G02*
X115327600Y-97450500I0J250000D01*
G01*
X115327600Y-96775500D01*
G75*
G02*
X115577600Y-96525500I250000J0D01*
G01*
X116527600Y-96525500D01*
G75*
G02*
X116777600Y-96775500I0J-250000D01*
G01*
X116777600Y-97450500D01*
G75*
G02*
X116527600Y-97700500I-250000J0D01*
G01*
G37*
%TD*%
%TO.C,C9*%
G36*
G01*
X133228100Y-95625500D02*
X132278100Y-95625500D01*
G75*
G02*
X132028100Y-95375500I0J250000D01*
G01*
X132028100Y-94700500D01*
G75*
G02*
X132278100Y-94450500I250000J0D01*
G01*
X133228100Y-94450500D01*
G75*
G02*
X133478100Y-94700500I0J-250000D01*
G01*
X133478100Y-95375500D01*
G75*
G02*
X133228100Y-95625500I-250000J0D01*
G01*
G37*
G36*
G01*
X133228100Y-97700500D02*
X132278100Y-97700500D01*
G75*
G02*
X132028100Y-97450500I0J250000D01*
G01*
X132028100Y-96775500D01*
G75*
G02*
X132278100Y-96525500I250000J0D01*
G01*
X133228100Y-96525500D01*
G75*
G02*
X133478100Y-96775500I0J-250000D01*
G01*
X133478100Y-97450500D01*
G75*
G02*
X133228100Y-97700500I-250000J0D01*
G01*
G37*
%TD*%
%TO.C,C10*%
G36*
G01*
X98290800Y-99484200D02*
X98290800Y-98534200D01*
G75*
G02*
X98540800Y-98284200I250000J0D01*
G01*
X99215800Y-98284200D01*
G75*
G02*
X99465800Y-98534200I0J-250000D01*
G01*
X99465800Y-99484200D01*
G75*
G02*
X99215800Y-99734200I-250000J0D01*
G01*
X98540800Y-99734200D01*
G75*
G02*
X98290800Y-99484200I0J250000D01*
G01*
G37*
G36*
G01*
X96215800Y-99484200D02*
X96215800Y-98534200D01*
G75*
G02*
X96465800Y-98284200I250000J0D01*
G01*
X97140800Y-98284200D01*
G75*
G02*
X97390800Y-98534200I0J-250000D01*
G01*
X97390800Y-99484200D01*
G75*
G02*
X97140800Y-99734200I-250000J0D01*
G01*
X96465800Y-99734200D01*
G75*
G02*
X96215800Y-99484200I0J250000D01*
G01*
G37*
%TD*%
%TO.C,C11*%
G36*
G01*
X99465800Y-92285800D02*
X99465800Y-93235800D01*
G75*
G02*
X99215800Y-93485800I-250000J0D01*
G01*
X98540800Y-93485800D01*
G75*
G02*
X98290800Y-93235800I0J250000D01*
G01*
X98290800Y-92285800D01*
G75*
G02*
X98540800Y-92035800I250000J0D01*
G01*
X99215800Y-92035800D01*
G75*
G02*
X99465800Y-92285800I0J-250000D01*
G01*
G37*
G36*
G01*
X97390800Y-92285800D02*
X97390800Y-93235800D01*
G75*
G02*
X97140800Y-93485800I-250000J0D01*
G01*
X96465800Y-93485800D01*
G75*
G02*
X96215800Y-93235800I0J250000D01*
G01*
X96215800Y-92285800D01*
G75*
G02*
X96465800Y-92035800I250000J0D01*
G01*
X97140800Y-92035800D01*
G75*
G02*
X97390800Y-92285800I0J-250000D01*
G01*
G37*
%TD*%
%TO.C,C12*%
G36*
G01*
X131775800Y-116730800D02*
X131775800Y-115780800D01*
G75*
G02*
X132025800Y-115530800I250000J0D01*
G01*
X132700800Y-115530800D01*
G75*
G02*
X132950800Y-115780800I0J-250000D01*
G01*
X132950800Y-116730800D01*
G75*
G02*
X132700800Y-116980800I-250000J0D01*
G01*
X132025800Y-116980800D01*
G75*
G02*
X131775800Y-116730800I0J250000D01*
G01*
G37*
G36*
G01*
X133850800Y-116730800D02*
X133850800Y-115780800D01*
G75*
G02*
X134100800Y-115530800I250000J0D01*
G01*
X134775800Y-115530800D01*
G75*
G02*
X135025800Y-115780800I0J-250000D01*
G01*
X135025800Y-116730800D01*
G75*
G02*
X134775800Y-116980800I-250000J0D01*
G01*
X134100800Y-116980800D01*
G75*
G02*
X133850800Y-116730800I0J250000D01*
G01*
G37*
%TD*%
%TO.C,C15*%
G36*
G01*
X97136800Y-142908000D02*
X97136800Y-143858000D01*
G75*
G02*
X96886800Y-144108000I-250000J0D01*
G01*
X96211800Y-144108000D01*
G75*
G02*
X95961800Y-143858000I0J250000D01*
G01*
X95961800Y-142908000D01*
G75*
G02*
X96211800Y-142658000I250000J0D01*
G01*
X96886800Y-142658000D01*
G75*
G02*
X97136800Y-142908000I0J-250000D01*
G01*
G37*
G36*
G01*
X99211800Y-142908000D02*
X99211800Y-143858000D01*
G75*
G02*
X98961800Y-144108000I-250000J0D01*
G01*
X98286800Y-144108000D01*
G75*
G02*
X98036800Y-143858000I0J250000D01*
G01*
X98036800Y-142908000D01*
G75*
G02*
X98286800Y-142658000I250000J0D01*
G01*
X98961800Y-142658000D01*
G75*
G02*
X99211800Y-142908000I0J-250000D01*
G01*
G37*
%TD*%
%TO.C,C16*%
G36*
G01*
X114592700Y-138765300D02*
X114592700Y-137815300D01*
G75*
G02*
X114842700Y-137565300I250000J0D01*
G01*
X115517700Y-137565300D01*
G75*
G02*
X115767700Y-137815300I0J-250000D01*
G01*
X115767700Y-138765300D01*
G75*
G02*
X115517700Y-139015300I-250000J0D01*
G01*
X114842700Y-139015300D01*
G75*
G02*
X114592700Y-138765300I0J250000D01*
G01*
G37*
G36*
G01*
X116667700Y-138765300D02*
X116667700Y-137815300D01*
G75*
G02*
X116917700Y-137565300I250000J0D01*
G01*
X117592700Y-137565300D01*
G75*
G02*
X117842700Y-137815300I0J-250000D01*
G01*
X117842700Y-138765300D01*
G75*
G02*
X117592700Y-139015300I-250000J0D01*
G01*
X116917700Y-139015300D01*
G75*
G02*
X116667700Y-138765300I0J250000D01*
G01*
G37*
%TD*%
%TO.C,C17*%
G36*
G01*
X97231800Y-145890000D02*
X97231800Y-144940000D01*
G75*
G02*
X97481800Y-144690000I250000J0D01*
G01*
X98156800Y-144690000D01*
G75*
G02*
X98406800Y-144940000I0J-250000D01*
G01*
X98406800Y-145890000D01*
G75*
G02*
X98156800Y-146140000I-250000J0D01*
G01*
X97481800Y-146140000D01*
G75*
G02*
X97231800Y-145890000I0J250000D01*
G01*
G37*
G36*
G01*
X99306800Y-145890000D02*
X99306800Y-144940000D01*
G75*
G02*
X99556800Y-144690000I250000J0D01*
G01*
X100231800Y-144690000D01*
G75*
G02*
X100481800Y-144940000I0J-250000D01*
G01*
X100481800Y-145890000D01*
G75*
G02*
X100231800Y-146140000I-250000J0D01*
G01*
X99556800Y-146140000D01*
G75*
G02*
X99306800Y-145890000I0J250000D01*
G01*
G37*
%TD*%
%TO.C,R1*%
G36*
G01*
X122131600Y-112152999D02*
X122131600Y-113053001D01*
G75*
G02*
X121881601Y-113303000I-249999J0D01*
G01*
X121181599Y-113303000D01*
G75*
G02*
X120931600Y-113053001I0J249999D01*
G01*
X120931600Y-112152999D01*
G75*
G02*
X121181599Y-111903000I249999J0D01*
G01*
X121881601Y-111903000D01*
G75*
G02*
X122131600Y-112152999I0J-249999D01*
G01*
G37*
G36*
G01*
X120131600Y-112152999D02*
X120131600Y-113053001D01*
G75*
G02*
X119881601Y-113303000I-249999J0D01*
G01*
X119181599Y-113303000D01*
G75*
G02*
X118931600Y-113053001I0J249999D01*
G01*
X118931600Y-112152999D01*
G75*
G02*
X119181599Y-111903000I249999J0D01*
G01*
X119881601Y-111903000D01*
G75*
G02*
X120131600Y-112152999I0J-249999D01*
G01*
G37*
%TD*%
%TO.C,R2*%
G36*
G01*
X62338000Y-31490499D02*
X62338000Y-32390501D01*
G75*
G02*
X62088001Y-32640500I-249999J0D01*
G01*
X61387999Y-32640500D01*
G75*
G02*
X61138000Y-32390501I0J249999D01*
G01*
X61138000Y-31490499D01*
G75*
G02*
X61387999Y-31240500I249999J0D01*
G01*
X62088001Y-31240500D01*
G75*
G02*
X62338000Y-31490499I0J-249999D01*
G01*
G37*
G36*
G01*
X64338000Y-31490499D02*
X64338000Y-32390501D01*
G75*
G02*
X64088001Y-32640500I-249999J0D01*
G01*
X63387999Y-32640500D01*
G75*
G02*
X63138000Y-32390501I0J249999D01*
G01*
X63138000Y-31490499D01*
G75*
G02*
X63387999Y-31240500I249999J0D01*
G01*
X64088001Y-31240500D01*
G75*
G02*
X64338000Y-31490499I0J-249999D01*
G01*
G37*
%TD*%
%TO.C,R3*%
G36*
G01*
X71119800Y-34487699D02*
X71119800Y-35387701D01*
G75*
G02*
X70869801Y-35637700I-249999J0D01*
G01*
X70169799Y-35637700D01*
G75*
G02*
X69919800Y-35387701I0J249999D01*
G01*
X69919800Y-34487699D01*
G75*
G02*
X70169799Y-34237700I249999J0D01*
G01*
X70869801Y-34237700D01*
G75*
G02*
X71119800Y-34487699I0J-249999D01*
G01*
G37*
G36*
G01*
X69119800Y-34487699D02*
X69119800Y-35387701D01*
G75*
G02*
X68869801Y-35637700I-249999J0D01*
G01*
X68169799Y-35637700D01*
G75*
G02*
X67919800Y-35387701I0J249999D01*
G01*
X67919800Y-34487699D01*
G75*
G02*
X68169799Y-34237700I249999J0D01*
G01*
X68869801Y-34237700D01*
G75*
G02*
X69119800Y-34487699I0J-249999D01*
G01*
G37*
%TD*%
%TO.C,R4*%
G36*
G01*
X75799101Y-32480300D02*
X74899099Y-32480300D01*
G75*
G02*
X74649100Y-32230301I0J249999D01*
G01*
X74649100Y-31530299D01*
G75*
G02*
X74899099Y-31280300I249999J0D01*
G01*
X75799101Y-31280300D01*
G75*
G02*
X76049100Y-31530299I0J-249999D01*
G01*
X76049100Y-32230301D01*
G75*
G02*
X75799101Y-32480300I-249999J0D01*
G01*
G37*
G36*
G01*
X75799101Y-34480300D02*
X74899099Y-34480300D01*
G75*
G02*
X74649100Y-34230301I0J249999D01*
G01*
X74649100Y-33530299D01*
G75*
G02*
X74899099Y-33280300I249999J0D01*
G01*
X75799101Y-33280300D01*
G75*
G02*
X76049100Y-33530299I0J-249999D01*
G01*
X76049100Y-34230301D01*
G75*
G02*
X75799101Y-34480300I-249999J0D01*
G01*
G37*
%TD*%
%TO.C,R5*%
G36*
G01*
X78758201Y-34480300D02*
X77858199Y-34480300D01*
G75*
G02*
X77608200Y-34230301I0J249999D01*
G01*
X77608200Y-33530299D01*
G75*
G02*
X77858199Y-33280300I249999J0D01*
G01*
X78758201Y-33280300D01*
G75*
G02*
X79008200Y-33530299I0J-249999D01*
G01*
X79008200Y-34230301D01*
G75*
G02*
X78758201Y-34480300I-249999J0D01*
G01*
G37*
G36*
G01*
X78758201Y-32480300D02*
X77858199Y-32480300D01*
G75*
G02*
X77608200Y-32230301I0J249999D01*
G01*
X77608200Y-31530299D01*
G75*
G02*
X77858199Y-31280300I249999J0D01*
G01*
X78758201Y-31280300D01*
G75*
G02*
X79008200Y-31530299I0J-249999D01*
G01*
X79008200Y-32230301D01*
G75*
G02*
X78758201Y-32480300I-249999J0D01*
G01*
G37*
%TD*%
%TO.C,R6*%
G36*
G01*
X103028800Y-101200799D02*
X103028800Y-102100801D01*
G75*
G02*
X102778801Y-102350800I-249999J0D01*
G01*
X102078799Y-102350800D01*
G75*
G02*
X101828800Y-102100801I0J249999D01*
G01*
X101828800Y-101200799D01*
G75*
G02*
X102078799Y-100950800I249999J0D01*
G01*
X102778801Y-100950800D01*
G75*
G02*
X103028800Y-101200799I0J-249999D01*
G01*
G37*
G36*
G01*
X105028800Y-101200799D02*
X105028800Y-102100801D01*
G75*
G02*
X104778801Y-102350800I-249999J0D01*
G01*
X104078799Y-102350800D01*
G75*
G02*
X103828800Y-102100801I0J249999D01*
G01*
X103828800Y-101200799D01*
G75*
G02*
X104078799Y-100950800I249999J0D01*
G01*
X104778801Y-100950800D01*
G75*
G02*
X105028800Y-101200799I0J-249999D01*
G01*
G37*
%TD*%
%TO.C,R7*%
G36*
G01*
X105031600Y-103452999D02*
X105031600Y-104353001D01*
G75*
G02*
X104781601Y-104603000I-249999J0D01*
G01*
X104081599Y-104603000D01*
G75*
G02*
X103831600Y-104353001I0J249999D01*
G01*
X103831600Y-103452999D01*
G75*
G02*
X104081599Y-103203000I249999J0D01*
G01*
X104781601Y-103203000D01*
G75*
G02*
X105031600Y-103452999I0J-249999D01*
G01*
G37*
G36*
G01*
X103031600Y-103452999D02*
X103031600Y-104353001D01*
G75*
G02*
X102781601Y-104603000I-249999J0D01*
G01*
X102081599Y-104603000D01*
G75*
G02*
X101831600Y-104353001I0J249999D01*
G01*
X101831600Y-103452999D01*
G75*
G02*
X102081599Y-103203000I249999J0D01*
G01*
X102781601Y-103203000D01*
G75*
G02*
X103031600Y-103452999I0J-249999D01*
G01*
G37*
%TD*%
%TO.C,R8*%
G36*
G01*
X103031600Y-105752999D02*
X103031600Y-106653001D01*
G75*
G02*
X102781601Y-106903000I-249999J0D01*
G01*
X102081599Y-106903000D01*
G75*
G02*
X101831600Y-106653001I0J249999D01*
G01*
X101831600Y-105752999D01*
G75*
G02*
X102081599Y-105503000I249999J0D01*
G01*
X102781601Y-105503000D01*
G75*
G02*
X103031600Y-105752999I0J-249999D01*
G01*
G37*
G36*
G01*
X105031600Y-105752999D02*
X105031600Y-106653001D01*
G75*
G02*
X104781601Y-106903000I-249999J0D01*
G01*
X104081599Y-106903000D01*
G75*
G02*
X103831600Y-106653001I0J249999D01*
G01*
X103831600Y-105752999D01*
G75*
G02*
X104081599Y-105503000I249999J0D01*
G01*
X104781601Y-105503000D01*
G75*
G02*
X105031600Y-105752999I0J-249999D01*
G01*
G37*
%TD*%
%TO.C,R9*%
G36*
G01*
X105031600Y-108002999D02*
X105031600Y-108903001D01*
G75*
G02*
X104781601Y-109153000I-249999J0D01*
G01*
X104081599Y-109153000D01*
G75*
G02*
X103831600Y-108903001I0J249999D01*
G01*
X103831600Y-108002999D01*
G75*
G02*
X104081599Y-107753000I249999J0D01*
G01*
X104781601Y-107753000D01*
G75*
G02*
X105031600Y-108002999I0J-249999D01*
G01*
G37*
G36*
G01*
X103031600Y-108002999D02*
X103031600Y-108903001D01*
G75*
G02*
X102781601Y-109153000I-249999J0D01*
G01*
X102081599Y-109153000D01*
G75*
G02*
X101831600Y-108903001I0J249999D01*
G01*
X101831600Y-108002999D01*
G75*
G02*
X102081599Y-107753000I249999J0D01*
G01*
X102781601Y-107753000D01*
G75*
G02*
X103031600Y-108002999I0J-249999D01*
G01*
G37*
%TD*%
%TO.C,R10*%
G36*
G01*
X79648100Y-109849499D02*
X79648100Y-110749501D01*
G75*
G02*
X79398101Y-110999500I-249999J0D01*
G01*
X78698099Y-110999500D01*
G75*
G02*
X78448100Y-110749501I0J249999D01*
G01*
X78448100Y-109849499D01*
G75*
G02*
X78698099Y-109599500I249999J0D01*
G01*
X79398101Y-109599500D01*
G75*
G02*
X79648100Y-109849499I0J-249999D01*
G01*
G37*
G36*
G01*
X81648100Y-109849499D02*
X81648100Y-110749501D01*
G75*
G02*
X81398101Y-110999500I-249999J0D01*
G01*
X80698099Y-110999500D01*
G75*
G02*
X80448100Y-110749501I0J249999D01*
G01*
X80448100Y-109849499D01*
G75*
G02*
X80698099Y-109599500I249999J0D01*
G01*
X81398101Y-109599500D01*
G75*
G02*
X81648100Y-109849499I0J-249999D01*
G01*
G37*
%TD*%
%TO.C,R11*%
G36*
G01*
X81648100Y-106356999D02*
X81648100Y-107257001D01*
G75*
G02*
X81398101Y-107507000I-249999J0D01*
G01*
X80698099Y-107507000D01*
G75*
G02*
X80448100Y-107257001I0J249999D01*
G01*
X80448100Y-106356999D01*
G75*
G02*
X80698099Y-106107000I249999J0D01*
G01*
X81398101Y-106107000D01*
G75*
G02*
X81648100Y-106356999I0J-249999D01*
G01*
G37*
G36*
G01*
X79648100Y-106356999D02*
X79648100Y-107257001D01*
G75*
G02*
X79398101Y-107507000I-249999J0D01*
G01*
X78698099Y-107507000D01*
G75*
G02*
X78448100Y-107257001I0J249999D01*
G01*
X78448100Y-106356999D01*
G75*
G02*
X78698099Y-106107000I249999J0D01*
G01*
X79398101Y-106107000D01*
G75*
G02*
X79648100Y-106356999I0J-249999D01*
G01*
G37*
%TD*%
%TO.C,R12*%
G36*
G01*
X79648100Y-102864499D02*
X79648100Y-103764501D01*
G75*
G02*
X79398101Y-104014500I-249999J0D01*
G01*
X78698099Y-104014500D01*
G75*
G02*
X78448100Y-103764501I0J249999D01*
G01*
X78448100Y-102864499D01*
G75*
G02*
X78698099Y-102614500I249999J0D01*
G01*
X79398101Y-102614500D01*
G75*
G02*
X79648100Y-102864499I0J-249999D01*
G01*
G37*
G36*
G01*
X81648100Y-102864499D02*
X81648100Y-103764501D01*
G75*
G02*
X81398101Y-104014500I-249999J0D01*
G01*
X80698099Y-104014500D01*
G75*
G02*
X80448100Y-103764501I0J249999D01*
G01*
X80448100Y-102864499D01*
G75*
G02*
X80698099Y-102614500I249999J0D01*
G01*
X81398101Y-102614500D01*
G75*
G02*
X81648100Y-102864499I0J-249999D01*
G01*
G37*
%TD*%
%TO.C,R13*%
G36*
G01*
X81648100Y-99371999D02*
X81648100Y-100272001D01*
G75*
G02*
X81398101Y-100522000I-249999J0D01*
G01*
X80698099Y-100522000D01*
G75*
G02*
X80448100Y-100272001I0J249999D01*
G01*
X80448100Y-99371999D01*
G75*
G02*
X80698099Y-99122000I249999J0D01*
G01*
X81398101Y-99122000D01*
G75*
G02*
X81648100Y-99371999I0J-249999D01*
G01*
G37*
G36*
G01*
X79648100Y-99371999D02*
X79648100Y-100272001D01*
G75*
G02*
X79398101Y-100522000I-249999J0D01*
G01*
X78698099Y-100522000D01*
G75*
G02*
X78448100Y-100272001I0J249999D01*
G01*
X78448100Y-99371999D01*
G75*
G02*
X78698099Y-99122000I249999J0D01*
G01*
X79398101Y-99122000D01*
G75*
G02*
X79648100Y-99371999I0J-249999D01*
G01*
G37*
%TD*%
%TO.C,R14*%
G36*
G01*
X61138000Y-35400401D02*
X61138000Y-34500399D01*
G75*
G02*
X61387999Y-34250400I249999J0D01*
G01*
X62088001Y-34250400D01*
G75*
G02*
X62338000Y-34500399I0J-249999D01*
G01*
X62338000Y-35400401D01*
G75*
G02*
X62088001Y-35650400I-249999J0D01*
G01*
X61387999Y-35650400D01*
G75*
G02*
X61138000Y-35400401I0J249999D01*
G01*
G37*
G36*
G01*
X63138000Y-35400401D02*
X63138000Y-34500399D01*
G75*
G02*
X63387999Y-34250400I249999J0D01*
G01*
X64088001Y-34250400D01*
G75*
G02*
X64338000Y-34500399I0J-249999D01*
G01*
X64338000Y-35400401D01*
G75*
G02*
X64088001Y-35650400I-249999J0D01*
G01*
X63387999Y-35650400D01*
G75*
G02*
X63138000Y-35400401I0J249999D01*
G01*
G37*
%TD*%
%TO.C,R15*%
G36*
G01*
X55844500Y-33966999D02*
X55844500Y-34867001D01*
G75*
G02*
X55594501Y-35117000I-249999J0D01*
G01*
X54894499Y-35117000D01*
G75*
G02*
X54644500Y-34867001I0J249999D01*
G01*
X54644500Y-33966999D01*
G75*
G02*
X54894499Y-33717000I249999J0D01*
G01*
X55594501Y-33717000D01*
G75*
G02*
X55844500Y-33966999I0J-249999D01*
G01*
G37*
G36*
G01*
X57844500Y-33966999D02*
X57844500Y-34867001D01*
G75*
G02*
X57594501Y-35117000I-249999J0D01*
G01*
X56894499Y-35117000D01*
G75*
G02*
X56644500Y-34867001I0J249999D01*
G01*
X56644500Y-33966999D01*
G75*
G02*
X56894499Y-33717000I249999J0D01*
G01*
X57594501Y-33717000D01*
G75*
G02*
X57844500Y-33966999I0J-249999D01*
G01*
G37*
%TD*%
%TO.C,R16*%
G36*
G01*
X57988000Y-48063999D02*
X57988000Y-48964001D01*
G75*
G02*
X57738001Y-49214000I-249999J0D01*
G01*
X57037999Y-49214000D01*
G75*
G02*
X56788000Y-48964001I0J249999D01*
G01*
X56788000Y-48063999D01*
G75*
G02*
X57037999Y-47814000I249999J0D01*
G01*
X57738001Y-47814000D01*
G75*
G02*
X57988000Y-48063999I0J-249999D01*
G01*
G37*
G36*
G01*
X55988000Y-48063999D02*
X55988000Y-48964001D01*
G75*
G02*
X55738001Y-49214000I-249999J0D01*
G01*
X55037999Y-49214000D01*
G75*
G02*
X54788000Y-48964001I0J249999D01*
G01*
X54788000Y-48063999D01*
G75*
G02*
X55037999Y-47814000I249999J0D01*
G01*
X55738001Y-47814000D01*
G75*
G02*
X55988000Y-48063999I0J-249999D01*
G01*
G37*
%TD*%
%TO.C,R18*%
G36*
G01*
X120931600Y-110653001D02*
X120931600Y-109752999D01*
G75*
G02*
X121181599Y-109503000I249999J0D01*
G01*
X121881601Y-109503000D01*
G75*
G02*
X122131600Y-109752999I0J-249999D01*
G01*
X122131600Y-110653001D01*
G75*
G02*
X121881601Y-110903000I-249999J0D01*
G01*
X121181599Y-110903000D01*
G75*
G02*
X120931600Y-110653001I0J249999D01*
G01*
G37*
G36*
G01*
X118931600Y-110653001D02*
X118931600Y-109752999D01*
G75*
G02*
X119181599Y-109503000I249999J0D01*
G01*
X119881601Y-109503000D01*
G75*
G02*
X120131600Y-109752999I0J-249999D01*
G01*
X120131600Y-110653001D01*
G75*
G02*
X119881601Y-110903000I-249999J0D01*
G01*
X119181599Y-110903000D01*
G75*
G02*
X118931600Y-110653001I0J249999D01*
G01*
G37*
%TD*%
%TO.C,R19*%
G36*
G01*
X98958600Y-119957001D02*
X98958600Y-119056999D01*
G75*
G02*
X99208599Y-118807000I249999J0D01*
G01*
X99908601Y-118807000D01*
G75*
G02*
X100158600Y-119056999I0J-249999D01*
G01*
X100158600Y-119957001D01*
G75*
G02*
X99908601Y-120207000I-249999J0D01*
G01*
X99208599Y-120207000D01*
G75*
G02*
X98958600Y-119957001I0J249999D01*
G01*
G37*
G36*
G01*
X100958600Y-119957001D02*
X100958600Y-119056999D01*
G75*
G02*
X101208599Y-118807000I249999J0D01*
G01*
X101908601Y-118807000D01*
G75*
G02*
X102158600Y-119056999I0J-249999D01*
G01*
X102158600Y-119957001D01*
G75*
G02*
X101908601Y-120207000I-249999J0D01*
G01*
X101208599Y-120207000D01*
G75*
G02*
X100958600Y-119957001I0J249999D01*
G01*
G37*
%TD*%
%TO.C,R20*%
G36*
G01*
X122751800Y-122751001D02*
X122751800Y-121850999D01*
G75*
G02*
X123001799Y-121601000I249999J0D01*
G01*
X123701801Y-121601000D01*
G75*
G02*
X123951800Y-121850999I0J-249999D01*
G01*
X123951800Y-122751001D01*
G75*
G02*
X123701801Y-123001000I-249999J0D01*
G01*
X123001799Y-123001000D01*
G75*
G02*
X122751800Y-122751001I0J249999D01*
G01*
G37*
G36*
G01*
X120751800Y-122751001D02*
X120751800Y-121850999D01*
G75*
G02*
X121001799Y-121601000I249999J0D01*
G01*
X121701801Y-121601000D01*
G75*
G02*
X121951800Y-121850999I0J-249999D01*
G01*
X121951800Y-122751001D01*
G75*
G02*
X121701801Y-123001000I-249999J0D01*
G01*
X121001799Y-123001000D01*
G75*
G02*
X120751800Y-122751001I0J249999D01*
G01*
G37*
%TD*%
%TO.C,R21*%
G36*
G01*
X115367000Y-122751001D02*
X115367000Y-121850999D01*
G75*
G02*
X115616999Y-121601000I249999J0D01*
G01*
X116317001Y-121601000D01*
G75*
G02*
X116567000Y-121850999I0J-249999D01*
G01*
X116567000Y-122751001D01*
G75*
G02*
X116317001Y-123001000I-249999J0D01*
G01*
X115616999Y-123001000D01*
G75*
G02*
X115367000Y-122751001I0J249999D01*
G01*
G37*
G36*
G01*
X117367000Y-122751001D02*
X117367000Y-121850999D01*
G75*
G02*
X117616999Y-121601000I249999J0D01*
G01*
X118317001Y-121601000D01*
G75*
G02*
X118567000Y-121850999I0J-249999D01*
G01*
X118567000Y-122751001D01*
G75*
G02*
X118317001Y-123001000I-249999J0D01*
G01*
X117616999Y-123001000D01*
G75*
G02*
X117367000Y-122751001I0J249999D01*
G01*
G37*
%TD*%
%TO.C,R22*%
G36*
G01*
X131248200Y-140202499D02*
X131248200Y-141102501D01*
G75*
G02*
X130998201Y-141352500I-249999J0D01*
G01*
X130298199Y-141352500D01*
G75*
G02*
X130048200Y-141102501I0J249999D01*
G01*
X130048200Y-140202499D01*
G75*
G02*
X130298199Y-139952500I249999J0D01*
G01*
X130998201Y-139952500D01*
G75*
G02*
X131248200Y-140202499I0J-249999D01*
G01*
G37*
G36*
G01*
X133248200Y-140202499D02*
X133248200Y-141102501D01*
G75*
G02*
X132998201Y-141352500I-249999J0D01*
G01*
X132298199Y-141352500D01*
G75*
G02*
X132048200Y-141102501I0J249999D01*
G01*
X132048200Y-140202499D01*
G75*
G02*
X132298199Y-139952500I249999J0D01*
G01*
X132998201Y-139952500D01*
G75*
G02*
X133248200Y-140202499I0J-249999D01*
G01*
G37*
%TD*%
%TO.C,R23*%
G36*
G01*
X100958600Y-122243001D02*
X100958600Y-121342999D01*
G75*
G02*
X101208599Y-121093000I249999J0D01*
G01*
X101908601Y-121093000D01*
G75*
G02*
X102158600Y-121342999I0J-249999D01*
G01*
X102158600Y-122243001D01*
G75*
G02*
X101908601Y-122493000I-249999J0D01*
G01*
X101208599Y-122493000D01*
G75*
G02*
X100958600Y-122243001I0J249999D01*
G01*
G37*
G36*
G01*
X98958600Y-122243001D02*
X98958600Y-121342999D01*
G75*
G02*
X99208599Y-121093000I249999J0D01*
G01*
X99908601Y-121093000D01*
G75*
G02*
X100158600Y-121342999I0J-249999D01*
G01*
X100158600Y-122243001D01*
G75*
G02*
X99908601Y-122493000I-249999J0D01*
G01*
X99208599Y-122493000D01*
G75*
G02*
X98958600Y-122243001I0J249999D01*
G01*
G37*
%TD*%
%TO.C,R24*%
G36*
G01*
X115392400Y-129812201D02*
X115392400Y-128912199D01*
G75*
G02*
X115642399Y-128662200I249999J0D01*
G01*
X116342401Y-128662200D01*
G75*
G02*
X116592400Y-128912199I0J-249999D01*
G01*
X116592400Y-129812201D01*
G75*
G02*
X116342401Y-130062200I-249999J0D01*
G01*
X115642399Y-130062200D01*
G75*
G02*
X115392400Y-129812201I0J249999D01*
G01*
G37*
G36*
G01*
X117392400Y-129812201D02*
X117392400Y-128912199D01*
G75*
G02*
X117642399Y-128662200I249999J0D01*
G01*
X118342401Y-128662200D01*
G75*
G02*
X118592400Y-128912199I0J-249999D01*
G01*
X118592400Y-129812201D01*
G75*
G02*
X118342401Y-130062200I-249999J0D01*
G01*
X117642399Y-130062200D01*
G75*
G02*
X117392400Y-129812201I0J249999D01*
G01*
G37*
%TD*%
%TO.C,R25*%
G36*
G01*
X122751800Y-127450001D02*
X122751800Y-126549999D01*
G75*
G02*
X123001799Y-126300000I249999J0D01*
G01*
X123701801Y-126300000D01*
G75*
G02*
X123951800Y-126549999I0J-249999D01*
G01*
X123951800Y-127450001D01*
G75*
G02*
X123701801Y-127700000I-249999J0D01*
G01*
X123001799Y-127700000D01*
G75*
G02*
X122751800Y-127450001I0J249999D01*
G01*
G37*
G36*
G01*
X120751800Y-127450001D02*
X120751800Y-126549999D01*
G75*
G02*
X121001799Y-126300000I249999J0D01*
G01*
X121701801Y-126300000D01*
G75*
G02*
X121951800Y-126549999I0J-249999D01*
G01*
X121951800Y-127450001D01*
G75*
G02*
X121701801Y-127700000I-249999J0D01*
G01*
X121001799Y-127700000D01*
G75*
G02*
X120751800Y-127450001I0J249999D01*
G01*
G37*
%TD*%
%TO.C,R26*%
G36*
G01*
X115367000Y-127450001D02*
X115367000Y-126549999D01*
G75*
G02*
X115616999Y-126300000I249999J0D01*
G01*
X116317001Y-126300000D01*
G75*
G02*
X116567000Y-126549999I0J-249999D01*
G01*
X116567000Y-127450001D01*
G75*
G02*
X116317001Y-127700000I-249999J0D01*
G01*
X115616999Y-127700000D01*
G75*
G02*
X115367000Y-127450001I0J249999D01*
G01*
G37*
G36*
G01*
X117367000Y-127450001D02*
X117367000Y-126549999D01*
G75*
G02*
X117616999Y-126300000I249999J0D01*
G01*
X118317001Y-126300000D01*
G75*
G02*
X118567000Y-126549999I0J-249999D01*
G01*
X118567000Y-127450001D01*
G75*
G02*
X118317001Y-127700000I-249999J0D01*
G01*
X117616999Y-127700000D01*
G75*
G02*
X117367000Y-127450001I0J249999D01*
G01*
G37*
%TD*%
%TO.C,R27*%
G36*
G01*
X122751800Y-125113201D02*
X122751800Y-124213199D01*
G75*
G02*
X123001799Y-123963200I249999J0D01*
G01*
X123701801Y-123963200D01*
G75*
G02*
X123951800Y-124213199I0J-249999D01*
G01*
X123951800Y-125113201D01*
G75*
G02*
X123701801Y-125363200I-249999J0D01*
G01*
X123001799Y-125363200D01*
G75*
G02*
X122751800Y-125113201I0J249999D01*
G01*
G37*
G36*
G01*
X120751800Y-125113201D02*
X120751800Y-124213199D01*
G75*
G02*
X121001799Y-123963200I249999J0D01*
G01*
X121701801Y-123963200D01*
G75*
G02*
X121951800Y-124213199I0J-249999D01*
G01*
X121951800Y-125113201D01*
G75*
G02*
X121701801Y-125363200I-249999J0D01*
G01*
X121001799Y-125363200D01*
G75*
G02*
X120751800Y-125113201I0J249999D01*
G01*
G37*
%TD*%
%TO.C,R28*%
G36*
G01*
X115367000Y-125113201D02*
X115367000Y-124213199D01*
G75*
G02*
X115616999Y-123963200I249999J0D01*
G01*
X116317001Y-123963200D01*
G75*
G02*
X116567000Y-124213199I0J-249999D01*
G01*
X116567000Y-125113201D01*
G75*
G02*
X116317001Y-125363200I-249999J0D01*
G01*
X115616999Y-125363200D01*
G75*
G02*
X115367000Y-125113201I0J249999D01*
G01*
G37*
G36*
G01*
X117367000Y-125113201D02*
X117367000Y-124213199D01*
G75*
G02*
X117616999Y-123963200I249999J0D01*
G01*
X118317001Y-123963200D01*
G75*
G02*
X118567000Y-124213199I0J-249999D01*
G01*
X118567000Y-125113201D01*
G75*
G02*
X118317001Y-125363200I-249999J0D01*
G01*
X117616999Y-125363200D01*
G75*
G02*
X117367000Y-125113201I0J249999D01*
G01*
G37*
%TD*%
%TO.C,R32*%
G36*
G01*
X108931600Y-102103001D02*
X108931600Y-101202999D01*
G75*
G02*
X109181599Y-100953000I249999J0D01*
G01*
X109881601Y-100953000D01*
G75*
G02*
X110131600Y-101202999I0J-249999D01*
G01*
X110131600Y-102103001D01*
G75*
G02*
X109881601Y-102353000I-249999J0D01*
G01*
X109181599Y-102353000D01*
G75*
G02*
X108931600Y-102103001I0J249999D01*
G01*
G37*
G36*
G01*
X110931600Y-102103001D02*
X110931600Y-101202999D01*
G75*
G02*
X111181599Y-100953000I249999J0D01*
G01*
X111881601Y-100953000D01*
G75*
G02*
X112131600Y-101202999I0J-249999D01*
G01*
X112131600Y-102103001D01*
G75*
G02*
X111881601Y-102353000I-249999J0D01*
G01*
X111181599Y-102353000D01*
G75*
G02*
X110931600Y-102103001I0J249999D01*
G01*
G37*
%TD*%
%TO.C,R33*%
G36*
G01*
X110931600Y-104353001D02*
X110931600Y-103452999D01*
G75*
G02*
X111181599Y-103203000I249999J0D01*
G01*
X111881601Y-103203000D01*
G75*
G02*
X112131600Y-103452999I0J-249999D01*
G01*
X112131600Y-104353001D01*
G75*
G02*
X111881601Y-104603000I-249999J0D01*
G01*
X111181599Y-104603000D01*
G75*
G02*
X110931600Y-104353001I0J249999D01*
G01*
G37*
G36*
G01*
X108931600Y-104353001D02*
X108931600Y-103452999D01*
G75*
G02*
X109181599Y-103203000I249999J0D01*
G01*
X109881601Y-103203000D01*
G75*
G02*
X110131600Y-103452999I0J-249999D01*
G01*
X110131600Y-104353001D01*
G75*
G02*
X109881601Y-104603000I-249999J0D01*
G01*
X109181599Y-104603000D01*
G75*
G02*
X108931600Y-104353001I0J249999D01*
G01*
G37*
%TD*%
%TO.C,R34*%
G36*
G01*
X110931600Y-106653001D02*
X110931600Y-105752999D01*
G75*
G02*
X111181599Y-105503000I249999J0D01*
G01*
X111881601Y-105503000D01*
G75*
G02*
X112131600Y-105752999I0J-249999D01*
G01*
X112131600Y-106653001D01*
G75*
G02*
X111881601Y-106903000I-249999J0D01*
G01*
X111181599Y-106903000D01*
G75*
G02*
X110931600Y-106653001I0J249999D01*
G01*
G37*
G36*
G01*
X108931600Y-106653001D02*
X108931600Y-105752999D01*
G75*
G02*
X109181599Y-105503000I249999J0D01*
G01*
X109881601Y-105503000D01*
G75*
G02*
X110131600Y-105752999I0J-249999D01*
G01*
X110131600Y-106653001D01*
G75*
G02*
X109881601Y-106903000I-249999J0D01*
G01*
X109181599Y-106903000D01*
G75*
G02*
X108931600Y-106653001I0J249999D01*
G01*
G37*
%TD*%
%TO.C,U2*%
G36*
G01*
X91053100Y-104195000D02*
X91053100Y-103995000D01*
G75*
G02*
X91153100Y-103895000I100000J0D01*
G01*
X92428100Y-103895000D01*
G75*
G02*
X92528100Y-103995000I0J-100000D01*
G01*
X92528100Y-104195000D01*
G75*
G02*
X92428100Y-104295000I-100000J0D01*
G01*
X91153100Y-104295000D01*
G75*
G02*
X91053100Y-104195000I0J100000D01*
G01*
G37*
G36*
G01*
X91053100Y-104845000D02*
X91053100Y-104645000D01*
G75*
G02*
X91153100Y-104545000I100000J0D01*
G01*
X92428100Y-104545000D01*
G75*
G02*
X92528100Y-104645000I0J-100000D01*
G01*
X92528100Y-104845000D01*
G75*
G02*
X92428100Y-104945000I-100000J0D01*
G01*
X91153100Y-104945000D01*
G75*
G02*
X91053100Y-104845000I0J100000D01*
G01*
G37*
G36*
G01*
X91053100Y-105495000D02*
X91053100Y-105295000D01*
G75*
G02*
X91153100Y-105195000I100000J0D01*
G01*
X92428100Y-105195000D01*
G75*
G02*
X92528100Y-105295000I0J-100000D01*
G01*
X92528100Y-105495000D01*
G75*
G02*
X92428100Y-105595000I-100000J0D01*
G01*
X91153100Y-105595000D01*
G75*
G02*
X91053100Y-105495000I0J100000D01*
G01*
G37*
G36*
G01*
X91053100Y-106145000D02*
X91053100Y-105945000D01*
G75*
G02*
X91153100Y-105845000I100000J0D01*
G01*
X92428100Y-105845000D01*
G75*
G02*
X92528100Y-105945000I0J-100000D01*
G01*
X92528100Y-106145000D01*
G75*
G02*
X92428100Y-106245000I-100000J0D01*
G01*
X91153100Y-106245000D01*
G75*
G02*
X91053100Y-106145000I0J100000D01*
G01*
G37*
G36*
G01*
X91053100Y-106795000D02*
X91053100Y-106595000D01*
G75*
G02*
X91153100Y-106495000I100000J0D01*
G01*
X92428100Y-106495000D01*
G75*
G02*
X92528100Y-106595000I0J-100000D01*
G01*
X92528100Y-106795000D01*
G75*
G02*
X92428100Y-106895000I-100000J0D01*
G01*
X91153100Y-106895000D01*
G75*
G02*
X91053100Y-106795000I0J100000D01*
G01*
G37*
G36*
G01*
X91053100Y-107445000D02*
X91053100Y-107245000D01*
G75*
G02*
X91153100Y-107145000I100000J0D01*
G01*
X92428100Y-107145000D01*
G75*
G02*
X92528100Y-107245000I0J-100000D01*
G01*
X92528100Y-107445000D01*
G75*
G02*
X92428100Y-107545000I-100000J0D01*
G01*
X91153100Y-107545000D01*
G75*
G02*
X91053100Y-107445000I0J100000D01*
G01*
G37*
G36*
G01*
X91053100Y-108095000D02*
X91053100Y-107895000D01*
G75*
G02*
X91153100Y-107795000I100000J0D01*
G01*
X92428100Y-107795000D01*
G75*
G02*
X92528100Y-107895000I0J-100000D01*
G01*
X92528100Y-108095000D01*
G75*
G02*
X92428100Y-108195000I-100000J0D01*
G01*
X91153100Y-108195000D01*
G75*
G02*
X91053100Y-108095000I0J100000D01*
G01*
G37*
G36*
G01*
X96778100Y-108095000D02*
X96778100Y-107895000D01*
G75*
G02*
X96878100Y-107795000I100000J0D01*
G01*
X98153100Y-107795000D01*
G75*
G02*
X98253100Y-107895000I0J-100000D01*
G01*
X98253100Y-108095000D01*
G75*
G02*
X98153100Y-108195000I-100000J0D01*
G01*
X96878100Y-108195000D01*
G75*
G02*
X96778100Y-108095000I0J100000D01*
G01*
G37*
G36*
G01*
X96778100Y-107445000D02*
X96778100Y-107245000D01*
G75*
G02*
X96878100Y-107145000I100000J0D01*
G01*
X98153100Y-107145000D01*
G75*
G02*
X98253100Y-107245000I0J-100000D01*
G01*
X98253100Y-107445000D01*
G75*
G02*
X98153100Y-107545000I-100000J0D01*
G01*
X96878100Y-107545000D01*
G75*
G02*
X96778100Y-107445000I0J100000D01*
G01*
G37*
G36*
G01*
X96778100Y-106795000D02*
X96778100Y-106595000D01*
G75*
G02*
X96878100Y-106495000I100000J0D01*
G01*
X98153100Y-106495000D01*
G75*
G02*
X98253100Y-106595000I0J-100000D01*
G01*
X98253100Y-106795000D01*
G75*
G02*
X98153100Y-106895000I-100000J0D01*
G01*
X96878100Y-106895000D01*
G75*
G02*
X96778100Y-106795000I0J100000D01*
G01*
G37*
G36*
G01*
X96778100Y-106145000D02*
X96778100Y-105945000D01*
G75*
G02*
X96878100Y-105845000I100000J0D01*
G01*
X98153100Y-105845000D01*
G75*
G02*
X98253100Y-105945000I0J-100000D01*
G01*
X98253100Y-106145000D01*
G75*
G02*
X98153100Y-106245000I-100000J0D01*
G01*
X96878100Y-106245000D01*
G75*
G02*
X96778100Y-106145000I0J100000D01*
G01*
G37*
G36*
G01*
X96778100Y-105495000D02*
X96778100Y-105295000D01*
G75*
G02*
X96878100Y-105195000I100000J0D01*
G01*
X98153100Y-105195000D01*
G75*
G02*
X98253100Y-105295000I0J-100000D01*
G01*
X98253100Y-105495000D01*
G75*
G02*
X98153100Y-105595000I-100000J0D01*
G01*
X96878100Y-105595000D01*
G75*
G02*
X96778100Y-105495000I0J100000D01*
G01*
G37*
G36*
G01*
X96778100Y-104845000D02*
X96778100Y-104645000D01*
G75*
G02*
X96878100Y-104545000I100000J0D01*
G01*
X98153100Y-104545000D01*
G75*
G02*
X98253100Y-104645000I0J-100000D01*
G01*
X98253100Y-104845000D01*
G75*
G02*
X98153100Y-104945000I-100000J0D01*
G01*
X96878100Y-104945000D01*
G75*
G02*
X96778100Y-104845000I0J100000D01*
G01*
G37*
G36*
G01*
X96778100Y-104195000D02*
X96778100Y-103995000D01*
G75*
G02*
X96878100Y-103895000I100000J0D01*
G01*
X98153100Y-103895000D01*
G75*
G02*
X98253100Y-103995000I0J-100000D01*
G01*
X98253100Y-104195000D01*
G75*
G02*
X98153100Y-104295000I-100000J0D01*
G01*
X96878100Y-104295000D01*
G75*
G02*
X96778100Y-104195000I0J100000D01*
G01*
G37*
%TD*%
%TO.C,U4*%
G36*
G01*
X96933200Y-124134000D02*
X96933200Y-123934000D01*
G75*
G02*
X97033200Y-123834000I100000J0D01*
G01*
X98308200Y-123834000D01*
G75*
G02*
X98408200Y-123934000I0J-100000D01*
G01*
X98408200Y-124134000D01*
G75*
G02*
X98308200Y-124234000I-100000J0D01*
G01*
X97033200Y-124234000D01*
G75*
G02*
X96933200Y-124134000I0J100000D01*
G01*
G37*
G36*
G01*
X96933200Y-124784000D02*
X96933200Y-124584000D01*
G75*
G02*
X97033200Y-124484000I100000J0D01*
G01*
X98308200Y-124484000D01*
G75*
G02*
X98408200Y-124584000I0J-100000D01*
G01*
X98408200Y-124784000D01*
G75*
G02*
X98308200Y-124884000I-100000J0D01*
G01*
X97033200Y-124884000D01*
G75*
G02*
X96933200Y-124784000I0J100000D01*
G01*
G37*
G36*
G01*
X96933200Y-125434000D02*
X96933200Y-125234000D01*
G75*
G02*
X97033200Y-125134000I100000J0D01*
G01*
X98308200Y-125134000D01*
G75*
G02*
X98408200Y-125234000I0J-100000D01*
G01*
X98408200Y-125434000D01*
G75*
G02*
X98308200Y-125534000I-100000J0D01*
G01*
X97033200Y-125534000D01*
G75*
G02*
X96933200Y-125434000I0J100000D01*
G01*
G37*
G36*
G01*
X96933200Y-126084000D02*
X96933200Y-125884000D01*
G75*
G02*
X97033200Y-125784000I100000J0D01*
G01*
X98308200Y-125784000D01*
G75*
G02*
X98408200Y-125884000I0J-100000D01*
G01*
X98408200Y-126084000D01*
G75*
G02*
X98308200Y-126184000I-100000J0D01*
G01*
X97033200Y-126184000D01*
G75*
G02*
X96933200Y-126084000I0J100000D01*
G01*
G37*
G36*
G01*
X96933200Y-126734000D02*
X96933200Y-126534000D01*
G75*
G02*
X97033200Y-126434000I100000J0D01*
G01*
X98308200Y-126434000D01*
G75*
G02*
X98408200Y-126534000I0J-100000D01*
G01*
X98408200Y-126734000D01*
G75*
G02*
X98308200Y-126834000I-100000J0D01*
G01*
X97033200Y-126834000D01*
G75*
G02*
X96933200Y-126734000I0J100000D01*
G01*
G37*
G36*
G01*
X96933200Y-127384000D02*
X96933200Y-127184000D01*
G75*
G02*
X97033200Y-127084000I100000J0D01*
G01*
X98308200Y-127084000D01*
G75*
G02*
X98408200Y-127184000I0J-100000D01*
G01*
X98408200Y-127384000D01*
G75*
G02*
X98308200Y-127484000I-100000J0D01*
G01*
X97033200Y-127484000D01*
G75*
G02*
X96933200Y-127384000I0J100000D01*
G01*
G37*
G36*
G01*
X96933200Y-128034000D02*
X96933200Y-127834000D01*
G75*
G02*
X97033200Y-127734000I100000J0D01*
G01*
X98308200Y-127734000D01*
G75*
G02*
X98408200Y-127834000I0J-100000D01*
G01*
X98408200Y-128034000D01*
G75*
G02*
X98308200Y-128134000I-100000J0D01*
G01*
X97033200Y-128134000D01*
G75*
G02*
X96933200Y-128034000I0J100000D01*
G01*
G37*
G36*
G01*
X102658200Y-128034000D02*
X102658200Y-127834000D01*
G75*
G02*
X102758200Y-127734000I100000J0D01*
G01*
X104033200Y-127734000D01*
G75*
G02*
X104133200Y-127834000I0J-100000D01*
G01*
X104133200Y-128034000D01*
G75*
G02*
X104033200Y-128134000I-100000J0D01*
G01*
X102758200Y-128134000D01*
G75*
G02*
X102658200Y-128034000I0J100000D01*
G01*
G37*
G36*
G01*
X102658200Y-127384000D02*
X102658200Y-127184000D01*
G75*
G02*
X102758200Y-127084000I100000J0D01*
G01*
X104033200Y-127084000D01*
G75*
G02*
X104133200Y-127184000I0J-100000D01*
G01*
X104133200Y-127384000D01*
G75*
G02*
X104033200Y-127484000I-100000J0D01*
G01*
X102758200Y-127484000D01*
G75*
G02*
X102658200Y-127384000I0J100000D01*
G01*
G37*
G36*
G01*
X102658200Y-126734000D02*
X102658200Y-126534000D01*
G75*
G02*
X102758200Y-126434000I100000J0D01*
G01*
X104033200Y-126434000D01*
G75*
G02*
X104133200Y-126534000I0J-100000D01*
G01*
X104133200Y-126734000D01*
G75*
G02*
X104033200Y-126834000I-100000J0D01*
G01*
X102758200Y-126834000D01*
G75*
G02*
X102658200Y-126734000I0J100000D01*
G01*
G37*
G36*
G01*
X102658200Y-126084000D02*
X102658200Y-125884000D01*
G75*
G02*
X102758200Y-125784000I100000J0D01*
G01*
X104033200Y-125784000D01*
G75*
G02*
X104133200Y-125884000I0J-100000D01*
G01*
X104133200Y-126084000D01*
G75*
G02*
X104033200Y-126184000I-100000J0D01*
G01*
X102758200Y-126184000D01*
G75*
G02*
X102658200Y-126084000I0J100000D01*
G01*
G37*
G36*
G01*
X102658200Y-125434000D02*
X102658200Y-125234000D01*
G75*
G02*
X102758200Y-125134000I100000J0D01*
G01*
X104033200Y-125134000D01*
G75*
G02*
X104133200Y-125234000I0J-100000D01*
G01*
X104133200Y-125434000D01*
G75*
G02*
X104033200Y-125534000I-100000J0D01*
G01*
X102758200Y-125534000D01*
G75*
G02*
X102658200Y-125434000I0J100000D01*
G01*
G37*
G36*
G01*
X102658200Y-124784000D02*
X102658200Y-124584000D01*
G75*
G02*
X102758200Y-124484000I100000J0D01*
G01*
X104033200Y-124484000D01*
G75*
G02*
X104133200Y-124584000I0J-100000D01*
G01*
X104133200Y-124784000D01*
G75*
G02*
X104033200Y-124884000I-100000J0D01*
G01*
X102758200Y-124884000D01*
G75*
G02*
X102658200Y-124784000I0J100000D01*
G01*
G37*
G36*
G01*
X102658200Y-124134000D02*
X102658200Y-123934000D01*
G75*
G02*
X102758200Y-123834000I100000J0D01*
G01*
X104033200Y-123834000D01*
G75*
G02*
X104133200Y-123934000I0J-100000D01*
G01*
X104133200Y-124134000D01*
G75*
G02*
X104033200Y-124234000I-100000J0D01*
G01*
X102758200Y-124234000D01*
G75*
G02*
X102658200Y-124134000I0J100000D01*
G01*
G37*
%TD*%
D21*
%TO.C,U5*%
X99317800Y-96835000D03*
X99317800Y-95885000D03*
X99317800Y-94935000D03*
X96617800Y-94935000D03*
X96617800Y-96835000D03*
%TD*%
D22*
%TO.C,U6*%
G36*
X111274334Y-138562255D02*
G01*
X111663243Y-138951164D01*
X110531872Y-140082535D01*
X110142963Y-139693626D01*
X111274334Y-138562255D01*
G37*
G36*
X110708648Y-137996570D02*
G01*
X111097557Y-138385479D01*
X109966186Y-139516850D01*
X109577277Y-139127941D01*
X110708648Y-137996570D01*
G37*
G36*
X110142963Y-137430884D02*
G01*
X110531872Y-137819793D01*
X109400501Y-138951164D01*
X109011592Y-138562255D01*
X110142963Y-137430884D01*
G37*
G36*
X109577278Y-136865199D02*
G01*
X109966187Y-137254108D01*
X108834816Y-138385479D01*
X108445907Y-137996570D01*
X109577278Y-136865199D01*
G37*
G36*
X109011592Y-136299513D02*
G01*
X109400501Y-136688422D01*
X108269130Y-137819793D01*
X107880221Y-137430884D01*
X109011592Y-136299513D01*
G37*
G36*
X108445907Y-135733828D02*
G01*
X108834816Y-136122737D01*
X107703445Y-137254108D01*
X107314536Y-136865199D01*
X108445907Y-135733828D01*
G37*
G36*
X107880221Y-135168143D02*
G01*
X108269130Y-135557052D01*
X107137759Y-136688423D01*
X106748850Y-136299514D01*
X107880221Y-135168143D01*
G37*
G36*
X107314536Y-134602457D02*
G01*
X107703445Y-134991366D01*
X106572074Y-136122737D01*
X106183165Y-135733828D01*
X107314536Y-134602457D01*
G37*
G36*
X104132555Y-134991366D02*
G01*
X104521464Y-134602457D01*
X105652835Y-135733828D01*
X105263926Y-136122737D01*
X104132555Y-134991366D01*
G37*
G36*
X103566870Y-135557052D02*
G01*
X103955779Y-135168143D01*
X105087150Y-136299514D01*
X104698241Y-136688423D01*
X103566870Y-135557052D01*
G37*
G36*
X103001184Y-136122737D02*
G01*
X103390093Y-135733828D01*
X104521464Y-136865199D01*
X104132555Y-137254108D01*
X103001184Y-136122737D01*
G37*
G36*
X102435499Y-136688422D02*
G01*
X102824408Y-136299513D01*
X103955779Y-137430884D01*
X103566870Y-137819793D01*
X102435499Y-136688422D01*
G37*
G36*
X101869813Y-137254108D02*
G01*
X102258722Y-136865199D01*
X103390093Y-137996570D01*
X103001184Y-138385479D01*
X101869813Y-137254108D01*
G37*
G36*
X101304128Y-137819793D02*
G01*
X101693037Y-137430884D01*
X102824408Y-138562255D01*
X102435499Y-138951164D01*
X101304128Y-137819793D01*
G37*
G36*
X100738443Y-138385479D02*
G01*
X101127352Y-137996570D01*
X102258723Y-139127941D01*
X101869814Y-139516850D01*
X100738443Y-138385479D01*
G37*
G36*
X100172757Y-138951164D02*
G01*
X100561666Y-138562255D01*
X101693037Y-139693626D01*
X101304128Y-140082535D01*
X100172757Y-138951164D01*
G37*
G36*
X101304128Y-140612865D02*
G01*
X101693037Y-141001774D01*
X100561666Y-142133145D01*
X100172757Y-141744236D01*
X101304128Y-140612865D01*
G37*
G36*
X101869814Y-141178550D02*
G01*
X102258723Y-141567459D01*
X101127352Y-142698830D01*
X100738443Y-142309921D01*
X101869814Y-141178550D01*
G37*
G36*
X102435499Y-141744236D02*
G01*
X102824408Y-142133145D01*
X101693037Y-143264516D01*
X101304128Y-142875607D01*
X102435499Y-141744236D01*
G37*
G36*
X103001184Y-142309921D02*
G01*
X103390093Y-142698830D01*
X102258722Y-143830201D01*
X101869813Y-143441292D01*
X103001184Y-142309921D01*
G37*
G36*
X103566870Y-142875607D02*
G01*
X103955779Y-143264516D01*
X102824408Y-144395887D01*
X102435499Y-144006978D01*
X103566870Y-142875607D01*
G37*
G36*
X104132555Y-143441292D02*
G01*
X104521464Y-143830201D01*
X103390093Y-144961572D01*
X103001184Y-144572663D01*
X104132555Y-143441292D01*
G37*
G36*
X104698241Y-144006977D02*
G01*
X105087150Y-144395886D01*
X103955779Y-145527257D01*
X103566870Y-145138348D01*
X104698241Y-144006977D01*
G37*
G36*
X105263926Y-144572663D02*
G01*
X105652835Y-144961572D01*
X104521464Y-146092943D01*
X104132555Y-145704034D01*
X105263926Y-144572663D01*
G37*
G36*
X106183165Y-144961572D02*
G01*
X106572074Y-144572663D01*
X107703445Y-145704034D01*
X107314536Y-146092943D01*
X106183165Y-144961572D01*
G37*
G36*
X106748850Y-144395886D02*
G01*
X107137759Y-144006977D01*
X108269130Y-145138348D01*
X107880221Y-145527257D01*
X106748850Y-144395886D01*
G37*
G36*
X107314536Y-143830201D02*
G01*
X107703445Y-143441292D01*
X108834816Y-144572663D01*
X108445907Y-144961572D01*
X107314536Y-143830201D01*
G37*
G36*
X107880221Y-143264516D02*
G01*
X108269130Y-142875607D01*
X109400501Y-144006978D01*
X109011592Y-144395887D01*
X107880221Y-143264516D01*
G37*
G36*
X108445907Y-142698830D02*
G01*
X108834816Y-142309921D01*
X109966187Y-143441292D01*
X109577278Y-143830201D01*
X108445907Y-142698830D01*
G37*
G36*
X109011592Y-142133145D02*
G01*
X109400501Y-141744236D01*
X110531872Y-142875607D01*
X110142963Y-143264516D01*
X109011592Y-142133145D01*
G37*
G36*
X109577277Y-141567459D02*
G01*
X109966186Y-141178550D01*
X111097557Y-142309921D01*
X110708648Y-142698830D01*
X109577277Y-141567459D01*
G37*
G36*
X110142963Y-141001774D02*
G01*
X110531872Y-140612865D01*
X111663243Y-141744236D01*
X111274334Y-142133145D01*
X110142963Y-141001774D01*
G37*
%TD*%
%TO.C,U1*%
G36*
G01*
X126409000Y-107966000D02*
X126409000Y-108166000D01*
G75*
G02*
X126309000Y-108266000I-100000J0D01*
G01*
X125034000Y-108266000D01*
G75*
G02*
X124934000Y-108166000I0J100000D01*
G01*
X124934000Y-107966000D01*
G75*
G02*
X125034000Y-107866000I100000J0D01*
G01*
X126309000Y-107866000D01*
G75*
G02*
X126409000Y-107966000I0J-100000D01*
G01*
G37*
G36*
G01*
X126409000Y-107316000D02*
X126409000Y-107516000D01*
G75*
G02*
X126309000Y-107616000I-100000J0D01*
G01*
X125034000Y-107616000D01*
G75*
G02*
X124934000Y-107516000I0J100000D01*
G01*
X124934000Y-107316000D01*
G75*
G02*
X125034000Y-107216000I100000J0D01*
G01*
X126309000Y-107216000D01*
G75*
G02*
X126409000Y-107316000I0J-100000D01*
G01*
G37*
G36*
G01*
X126409000Y-106666000D02*
X126409000Y-106866000D01*
G75*
G02*
X126309000Y-106966000I-100000J0D01*
G01*
X125034000Y-106966000D01*
G75*
G02*
X124934000Y-106866000I0J100000D01*
G01*
X124934000Y-106666000D01*
G75*
G02*
X125034000Y-106566000I100000J0D01*
G01*
X126309000Y-106566000D01*
G75*
G02*
X126409000Y-106666000I0J-100000D01*
G01*
G37*
G36*
G01*
X126409000Y-106016000D02*
X126409000Y-106216000D01*
G75*
G02*
X126309000Y-106316000I-100000J0D01*
G01*
X125034000Y-106316000D01*
G75*
G02*
X124934000Y-106216000I0J100000D01*
G01*
X124934000Y-106016000D01*
G75*
G02*
X125034000Y-105916000I100000J0D01*
G01*
X126309000Y-105916000D01*
G75*
G02*
X126409000Y-106016000I0J-100000D01*
G01*
G37*
G36*
G01*
X126409000Y-105366000D02*
X126409000Y-105566000D01*
G75*
G02*
X126309000Y-105666000I-100000J0D01*
G01*
X125034000Y-105666000D01*
G75*
G02*
X124934000Y-105566000I0J100000D01*
G01*
X124934000Y-105366000D01*
G75*
G02*
X125034000Y-105266000I100000J0D01*
G01*
X126309000Y-105266000D01*
G75*
G02*
X126409000Y-105366000I0J-100000D01*
G01*
G37*
G36*
G01*
X126409000Y-104716000D02*
X126409000Y-104916000D01*
G75*
G02*
X126309000Y-105016000I-100000J0D01*
G01*
X125034000Y-105016000D01*
G75*
G02*
X124934000Y-104916000I0J100000D01*
G01*
X124934000Y-104716000D01*
G75*
G02*
X125034000Y-104616000I100000J0D01*
G01*
X126309000Y-104616000D01*
G75*
G02*
X126409000Y-104716000I0J-100000D01*
G01*
G37*
G36*
G01*
X126409000Y-104066000D02*
X126409000Y-104266000D01*
G75*
G02*
X126309000Y-104366000I-100000J0D01*
G01*
X125034000Y-104366000D01*
G75*
G02*
X124934000Y-104266000I0J100000D01*
G01*
X124934000Y-104066000D01*
G75*
G02*
X125034000Y-103966000I100000J0D01*
G01*
X126309000Y-103966000D01*
G75*
G02*
X126409000Y-104066000I0J-100000D01*
G01*
G37*
G36*
G01*
X126409000Y-103416000D02*
X126409000Y-103616000D01*
G75*
G02*
X126309000Y-103716000I-100000J0D01*
G01*
X125034000Y-103716000D01*
G75*
G02*
X124934000Y-103616000I0J100000D01*
G01*
X124934000Y-103416000D01*
G75*
G02*
X125034000Y-103316000I100000J0D01*
G01*
X126309000Y-103316000D01*
G75*
G02*
X126409000Y-103416000I0J-100000D01*
G01*
G37*
G36*
G01*
X120684000Y-103416000D02*
X120684000Y-103616000D01*
G75*
G02*
X120584000Y-103716000I-100000J0D01*
G01*
X119309000Y-103716000D01*
G75*
G02*
X119209000Y-103616000I0J100000D01*
G01*
X119209000Y-103416000D01*
G75*
G02*
X119309000Y-103316000I100000J0D01*
G01*
X120584000Y-103316000D01*
G75*
G02*
X120684000Y-103416000I0J-100000D01*
G01*
G37*
G36*
G01*
X120684000Y-104066000D02*
X120684000Y-104266000D01*
G75*
G02*
X120584000Y-104366000I-100000J0D01*
G01*
X119309000Y-104366000D01*
G75*
G02*
X119209000Y-104266000I0J100000D01*
G01*
X119209000Y-104066000D01*
G75*
G02*
X119309000Y-103966000I100000J0D01*
G01*
X120584000Y-103966000D01*
G75*
G02*
X120684000Y-104066000I0J-100000D01*
G01*
G37*
G36*
G01*
X120684000Y-104716000D02*
X120684000Y-104916000D01*
G75*
G02*
X120584000Y-105016000I-100000J0D01*
G01*
X119309000Y-105016000D01*
G75*
G02*
X119209000Y-104916000I0J100000D01*
G01*
X119209000Y-104716000D01*
G75*
G02*
X119309000Y-104616000I100000J0D01*
G01*
X120584000Y-104616000D01*
G75*
G02*
X120684000Y-104716000I0J-100000D01*
G01*
G37*
G36*
G01*
X120684000Y-105366000D02*
X120684000Y-105566000D01*
G75*
G02*
X120584000Y-105666000I-100000J0D01*
G01*
X119309000Y-105666000D01*
G75*
G02*
X119209000Y-105566000I0J100000D01*
G01*
X119209000Y-105366000D01*
G75*
G02*
X119309000Y-105266000I100000J0D01*
G01*
X120584000Y-105266000D01*
G75*
G02*
X120684000Y-105366000I0J-100000D01*
G01*
G37*
G36*
G01*
X120684000Y-106016000D02*
X120684000Y-106216000D01*
G75*
G02*
X120584000Y-106316000I-100000J0D01*
G01*
X119309000Y-106316000D01*
G75*
G02*
X119209000Y-106216000I0J100000D01*
G01*
X119209000Y-106016000D01*
G75*
G02*
X119309000Y-105916000I100000J0D01*
G01*
X120584000Y-105916000D01*
G75*
G02*
X120684000Y-106016000I0J-100000D01*
G01*
G37*
G36*
G01*
X120684000Y-106666000D02*
X120684000Y-106866000D01*
G75*
G02*
X120584000Y-106966000I-100000J0D01*
G01*
X119309000Y-106966000D01*
G75*
G02*
X119209000Y-106866000I0J100000D01*
G01*
X119209000Y-106666000D01*
G75*
G02*
X119309000Y-106566000I100000J0D01*
G01*
X120584000Y-106566000D01*
G75*
G02*
X120684000Y-106666000I0J-100000D01*
G01*
G37*
G36*
G01*
X120684000Y-107316000D02*
X120684000Y-107516000D01*
G75*
G02*
X120584000Y-107616000I-100000J0D01*
G01*
X119309000Y-107616000D01*
G75*
G02*
X119209000Y-107516000I0J100000D01*
G01*
X119209000Y-107316000D01*
G75*
G02*
X119309000Y-107216000I100000J0D01*
G01*
X120584000Y-107216000D01*
G75*
G02*
X120684000Y-107316000I0J-100000D01*
G01*
G37*
G36*
G01*
X120684000Y-107966000D02*
X120684000Y-108166000D01*
G75*
G02*
X120584000Y-108266000I-100000J0D01*
G01*
X119309000Y-108266000D01*
G75*
G02*
X119209000Y-108166000I0J100000D01*
G01*
X119209000Y-107966000D01*
G75*
G02*
X119309000Y-107866000I100000J0D01*
G01*
X120584000Y-107866000D01*
G75*
G02*
X120684000Y-107966000I0J-100000D01*
G01*
G37*
%TD*%
%TO.C,C7*%
G36*
G01*
X121238100Y-94835000D02*
X120138100Y-94835000D01*
G75*
G02*
X119888100Y-94585000I0J250000D01*
G01*
X119888100Y-91585000D01*
G75*
G02*
X120138100Y-91335000I250000J0D01*
G01*
X121238100Y-91335000D01*
G75*
G02*
X121488100Y-91585000I0J-250000D01*
G01*
X121488100Y-94585000D01*
G75*
G02*
X121238100Y-94835000I-250000J0D01*
G01*
G37*
G36*
G01*
X121238100Y-100435000D02*
X120138100Y-100435000D01*
G75*
G02*
X119888100Y-100185000I0J250000D01*
G01*
X119888100Y-97185000D01*
G75*
G02*
X120138100Y-96935000I250000J0D01*
G01*
X121238100Y-96935000D01*
G75*
G02*
X121488100Y-97185000I0J-250000D01*
G01*
X121488100Y-100185000D01*
G75*
G02*
X121238100Y-100435000I-250000J0D01*
G01*
G37*
%TD*%
%TO.C,C8*%
G36*
G01*
X127504100Y-91335000D02*
X128604100Y-91335000D01*
G75*
G02*
X128854100Y-91585000I0J-250000D01*
G01*
X128854100Y-94585000D01*
G75*
G02*
X128604100Y-94835000I-250000J0D01*
G01*
X127504100Y-94835000D01*
G75*
G02*
X127254100Y-94585000I0J250000D01*
G01*
X127254100Y-91585000D01*
G75*
G02*
X127504100Y-91335000I250000J0D01*
G01*
G37*
G36*
G01*
X127504100Y-96935000D02*
X128604100Y-96935000D01*
G75*
G02*
X128854100Y-97185000I0J-250000D01*
G01*
X128854100Y-100185000D01*
G75*
G02*
X128604100Y-100435000I-250000J0D01*
G01*
X127504100Y-100435000D01*
G75*
G02*
X127254100Y-100185000I0J250000D01*
G01*
X127254100Y-97185000D01*
G75*
G02*
X127504100Y-96935000I250000J0D01*
G01*
G37*
%TD*%
%TO.C,C13*%
G36*
G01*
X128850800Y-121454000D02*
X128850800Y-120354000D01*
G75*
G02*
X129100800Y-120104000I250000J0D01*
G01*
X132100800Y-120104000D01*
G75*
G02*
X132350800Y-120354000I0J-250000D01*
G01*
X132350800Y-121454000D01*
G75*
G02*
X132100800Y-121704000I-250000J0D01*
G01*
X129100800Y-121704000D01*
G75*
G02*
X128850800Y-121454000I0J250000D01*
G01*
G37*
G36*
G01*
X134450800Y-121454000D02*
X134450800Y-120354000D01*
G75*
G02*
X134700800Y-120104000I250000J0D01*
G01*
X137700800Y-120104000D01*
G75*
G02*
X137950800Y-120354000I0J-250000D01*
G01*
X137950800Y-121454000D01*
G75*
G02*
X137700800Y-121704000I-250000J0D01*
G01*
X134700800Y-121704000D01*
G75*
G02*
X134450800Y-121454000I0J250000D01*
G01*
G37*
%TD*%
%TO.C,D1*%
G36*
G01*
X53136600Y-33966999D02*
X53136600Y-34867001D01*
G75*
G02*
X52886601Y-35117000I-249999J0D01*
G01*
X52236599Y-35117000D01*
G75*
G02*
X51986600Y-34867001I0J249999D01*
G01*
X51986600Y-33966999D01*
G75*
G02*
X52236599Y-33717000I249999J0D01*
G01*
X52886601Y-33717000D01*
G75*
G02*
X53136600Y-33966999I0J-249999D01*
G01*
G37*
G36*
G01*
X51086600Y-33966999D02*
X51086600Y-34867001D01*
G75*
G02*
X50836601Y-35117000I-249999J0D01*
G01*
X50186599Y-35117000D01*
G75*
G02*
X49936600Y-34867001I0J249999D01*
G01*
X49936600Y-33966999D01*
G75*
G02*
X50186599Y-33717000I249999J0D01*
G01*
X50836601Y-33717000D01*
G75*
G02*
X51086600Y-33966999I0J-249999D01*
G01*
G37*
%TD*%
%TO.C,D2*%
G36*
G01*
X51112000Y-48063999D02*
X51112000Y-48964001D01*
G75*
G02*
X50862001Y-49214000I-249999J0D01*
G01*
X50211999Y-49214000D01*
G75*
G02*
X49962000Y-48964001I0J249999D01*
G01*
X49962000Y-48063999D01*
G75*
G02*
X50211999Y-47814000I249999J0D01*
G01*
X50862001Y-47814000D01*
G75*
G02*
X51112000Y-48063999I0J-249999D01*
G01*
G37*
G36*
G01*
X53162000Y-48063999D02*
X53162000Y-48964001D01*
G75*
G02*
X52912001Y-49214000I-249999J0D01*
G01*
X52261999Y-49214000D01*
G75*
G02*
X52012000Y-48964001I0J249999D01*
G01*
X52012000Y-48063999D01*
G75*
G02*
X52261999Y-47814000I249999J0D01*
G01*
X52912001Y-47814000D01*
G75*
G02*
X53162000Y-48063999I0J-249999D01*
G01*
G37*
%TD*%
D23*
%TO.C,Q1*%
X133298200Y-144968000D03*
X133298200Y-143068000D03*
X129998200Y-144018000D03*
%TD*%
D24*
%TO.C,Q2*%
X71286500Y-32915900D03*
X71286500Y-31015900D03*
X68286500Y-31965900D03*
%TD*%
D22*
%TO.C,Y1*%
G36*
X113116901Y-135433498D02*
G01*
X111773398Y-136777001D01*
X111490555Y-136494158D01*
X112834058Y-135150655D01*
X113116901Y-135433498D01*
G37*
G36*
X112268373Y-134584970D02*
G01*
X110924870Y-135928473D01*
X110642027Y-135645630D01*
X111985530Y-134302127D01*
X112268373Y-134584970D01*
G37*
G36*
X111419845Y-133736442D02*
G01*
X110076342Y-135079945D01*
X109793499Y-134797102D01*
X111137002Y-133453599D01*
X111419845Y-133736442D01*
G37*
%TD*%
M02*
